<svg version="1.1" viewBox="0.0 0.0 544.0 586.0" fill="none" stroke="none" stroke-linecap="square" stroke-miterlimit="10" xmlns:xlink="http://www.w3.org/1999/xlink" xmlns="http://www.w3.org/2000/svg"><clipPath id="p.0"><path d="m0 0l544.0 0l0 586.0l-544.0 0l0 -586.0z" clip-rule="nonzero"/></clipPath><g clip-path="url(#p.0)"><path fill="#262732" d="m0 0l544.0 0l0 586.0l-544.0 0z" fill-rule="evenodd"/><path fill="#000000" fill-opacity="0.0" d="m32.149605 308.8819l0 0c0 -131.50465 106.60558 -238.11024 238.11026 -238.11024l0 0c63.150757 0 123.71503 25.08654 168.36935 69.740875c44.654327 44.654327 69.740875 105.2186 69.740875 168.36937l0 0c0 131.50464 -106.60559 238.11023 -238.11023 238.11023l0 0c-131.50467 0 -238.11026 -106.60559 -238.11026 -238.11023z" fill-rule="evenodd"/><path stroke="#d7d8df" stroke-width="1.0" stroke-linejoin="round" stroke-linecap="butt" d="m32.149605 308.8819l0 0c0 -131.50465 106.60558 -238.11024 238.11026 -238.11024l0 0c63.150757 0 123.71503 25.08654 168.36935 69.740875c44.654327 44.654327 69.740875 105.2186 69.740875 168.36937l0 0c0 131.50464 -106.60559 238.11023 -238.11023 238.11023l0 0c-131.50467 0 -238.11026 -106.60559 -238.11026 -238.11023z" fill-rule="evenodd"/><path fill="#000000" fill-opacity="0.0" d="m284.9134 262.4567l0 0c0 -53.87169 43.67163 -97.543304 97.543304 -97.543304l0 0c25.870087 0 50.680603 10.276855 68.97354 28.569763c18.292908 18.292923 28.569763 43.10344 28.569763 68.97354l0 0c0 53.871674 -43.67163 97.543304 -97.543304 97.543304l0 0c-53.871674 0 -97.543304 -43.67163 -97.543304 -97.543304z" fill-rule="evenodd"/><path stroke="#d7d8df" stroke-width="1.0" stroke-linejoin="round" stroke-linecap="butt" d="m284.9134 262.4567l0 0c0 -53.87169 43.67163 -97.543304 97.543304 -97.543304l0 0c25.870087 0 50.680603 10.276855 68.97354 28.569763c18.292908 18.292923 28.569763 43.10344 28.569763 68.97354l0 0c0 53.871674 -43.67163 97.543304 -97.543304 97.543304l0 0c-53.871674 0 -97.543304 -43.67163 -97.543304 -97.543304z" fill-rule="evenodd"/><path fill="#000000" fill-opacity="0.0" d="m333.7244 189.20998l82.20474 0l0 42.015747l-82.20474 0z" fill-rule="evenodd"/><path fill="#d7d8df" d="m370.32144 200.38872l0 6.78125l-0.828125 0l0 -5.921875l-0.046875 0l-1.65625 1.09375l0 -0.828125l1.703125 -1.125l0.828125 0zm4.16098 6.875q-0.75 0 -1.28125 -0.40625q-0.53125 -0.40625 -0.8125 -1.1875q-0.265625 -0.78125 -0.265625 -1.890625q0 -1.09375 0.265625 -1.875q0.28125 -0.78125 0.8125 -1.1875q0.53125 -0.421875 1.28125 -0.421875q0.734375 0 1.265625 0.421875q0.53125 0.40625 0.8125 1.1875q0.28125 0.78125 0.28125 1.875q0 1.109375 -0.28125 1.890625q-0.28125 0.78125 -0.8125 1.1875q-0.53125 0.40625 -1.265625 0.40625zm0 -0.734375q0.734375 0 1.140625 -0.703125q0.421875 -0.71875 0.421875 -2.046875q0 -0.875 -0.1875 -1.5q-0.1875 -0.625 -0.546875 -0.9375q-0.34375 -0.328125 -0.828125 -0.328125q-0.75 0 -1.171875 0.71875q-0.40625 0.71875 -0.40625 2.046875q0 0.875 0.1875 1.5q0.1875 0.609375 0.53125 0.9375q0.359375 0.3125 0.859375 0.3125zm4.2051697 -4.453125l1.21875 2.078125l1.21875 -2.078125l0.90625 0l-1.640625 2.546875l1.640625 2.546875l-0.90625 0l-1.21875 -1.96875l-1.21875 1.96875l-0.90625 0l1.625 -2.546875l-1.625 -2.546875l0.90625 0z" fill-rule="nonzero"/><path fill="#d7d8df" d="m346.0569 220.27621l0 -7.0l0.75 0l0 0.8125l0.09375 0q0.09375 -0.125 0.234375 -0.328125q0.15625 -0.21875 0.4375 -0.375q0.296875 -0.171875 0.796875 -0.171875q0.640625 0 1.125 0.328125q0.5 0.3125 0.765625 0.90625q0.28125 0.59375 0.28125 1.390625q0 0.8125 -0.28125 1.40625q-0.265625 0.578125 -0.75 0.90625q-0.484375 0.328125 -1.125 0.328125q-0.484375 0 -0.78125 -0.15625q-0.296875 -0.171875 -0.453125 -0.375q-0.15625 -0.21875 -0.25 -0.359375l-0.0625 0l0 2.6875l-0.78125 0zm0.765625 -4.453125q0 0.578125 0.171875 1.015625q0.171875 0.4375 0.484375 0.6875q0.328125 0.25 0.796875 0.25q0.5 0 0.828125 -0.25q0.328125 -0.265625 0.484375 -0.703125q0.171875 -0.453125 0.171875 -1.0q0 -0.53125 -0.171875 -0.953125q-0.15625 -0.4375 -0.484375 -0.6875q-0.328125 -0.265625 -0.828125 -0.265625q-0.46875 0 -0.796875 0.25q-0.328125 0.234375 -0.5 0.671875q-0.15625 0.421875 -0.15625 0.984375zm4.9187927 2.546875l0 -5.09375l0.75 0l0 0.78125l0.0625 0q0.125 -0.390625 0.484375 -0.625q0.375 -0.234375 0.828125 -0.234375q0.09375 0 0.21875 0.015625q0.125 0 0.203125 0l0 0.796875q-0.046875 -0.015625 -0.1875 -0.03125q-0.140625 -0.015625 -0.296875 -0.015625q-0.375 0 -0.671875 0.15625q-0.28125 0.140625 -0.453125 0.421875q-0.15625 0.265625 -0.15625 0.609375l0 3.21875l-0.78125 0zm5.375 0.109375q-0.6875 0 -1.203125 -0.328125q-0.515625 -0.328125 -0.8125 -0.921875q-0.28125 -0.59375 -0.28125 -1.375q0 -0.796875 0.28125 -1.390625q0.296875 -0.59375 0.8125 -0.921875q0.515625 -0.328125 1.203125 -0.328125q0.6875 0 1.203125 0.328125q0.53125 0.328125 0.8125 0.921875q0.296875 0.59375 0.296875 1.390625q0 0.78125 -0.296875 1.375q-0.28125 0.59375 -0.8125 0.921875q-0.515625 0.328125 -1.203125 0.328125zm0 -0.703125q0.53125 0 0.859375 -0.265625q0.34375 -0.28125 0.5 -0.703125q0.171875 -0.4375 0.171875 -0.953125q0 -0.515625 -0.171875 -0.953125q-0.15625 -0.4375 -0.5 -0.703125q-0.328125 -0.28125 -0.859375 -0.28125q-0.515625 0 -0.859375 0.28125q-0.34375 0.265625 -0.5 0.703125q-0.15625 0.4375 -0.15625 0.953125q0 0.515625 0.15625 0.953125q0.15625 0.421875 0.5 0.703125q0.34375 0.265625 0.859375 0.265625zm5.54953 2.609375q-0.5625 0 -0.96875 -0.15625q-0.40625 -0.140625 -0.6875 -0.375q-0.265625 -0.21875 -0.421875 -0.484375l0.625 -0.4375q0.109375 0.140625 0.265625 0.3125q0.171875 0.1875 0.453125 0.3125q0.28125 0.140625 0.734375 0.140625q0.625 0 1.015625 -0.296875q0.40625 -0.296875 0.40625 -0.9375l0 -1.03125l-0.0625 0q-0.09375 0.140625 -0.25 0.34375q-0.15625 0.203125 -0.453125 0.359375q-0.28125 0.15625 -0.78125 0.15625q-0.625 0 -1.109375 -0.28125q-0.484375 -0.296875 -0.765625 -0.859375q-0.28125 -0.5625 -0.28125 -1.359375q0 -0.78125 0.265625 -1.359375q0.28125 -0.578125 0.765625 -0.890625q0.484375 -0.328125 1.140625 -0.328125q0.484375 0 0.78125 0.171875q0.296875 0.15625 0.453125 0.375q0.15625 0.203125 0.25 0.328125l0.078125 0l0 -0.8125l0.75 0l0 5.234375q0 0.65625 -0.296875 1.0625q-0.296875 0.421875 -0.796875 0.609375q-0.5 0.203125 -1.109375 0.203125zm-0.015625 -2.796875q0.46875 0 0.78125 -0.21875q0.328125 -0.21875 0.5 -0.609375q0.171875 -0.40625 0.171875 -0.96875q0 -0.5625 -0.171875 -0.96875q-0.15625 -0.421875 -0.484375 -0.65625q-0.328125 -0.25 -0.796875 -0.25q-0.5 0 -0.828125 0.25q-0.328125 0.25 -0.5 0.6875q-0.15625 0.421875 -0.15625 0.9375q0 0.53125 0.15625 0.9375q0.171875 0.390625 0.5 0.625q0.328125 0.234375 0.828125 0.234375zm3.6531372 0.78125l0 -5.09375l0.75 0l0 0.78125l0.0625 0q0.125 -0.390625 0.484375 -0.625q0.375 -0.234375 0.828125 -0.234375q0.09375 0 0.21875 0.015625q0.125 0 0.203125 0l0 0.796875q-0.046875 -0.015625 -0.1875 -0.03125q-0.140625 -0.015625 -0.296875 -0.015625q-0.375 0 -0.671875 0.15625q-0.28125 0.140625 -0.453125 0.421875q-0.15625 0.265625 -0.15625 0.609375l0 3.21875l-0.78125 0zm4.971588 0.125q-0.484375 0 -0.890625 -0.1875q-0.390625 -0.1875 -0.625 -0.53125q-0.21875 -0.359375 -0.21875 -0.84375q0 -0.4375 0.171875 -0.703125q0.171875 -0.28125 0.453125 -0.4375q0.28125 -0.15625 0.625 -0.234375q0.359375 -0.078125 0.71875 -0.125q0.46875 -0.0625 0.75 -0.09375q0.296875 -0.03125 0.421875 -0.109375q0.140625 -0.078125 0.140625 -0.265625l0 -0.03125q0 -0.484375 -0.265625 -0.75q-0.265625 -0.28125 -0.8125 -0.28125q-0.5625 0 -0.875 0.25q-0.3125 0.25 -0.453125 0.515625l-0.734375 -0.265625q0.203125 -0.453125 0.53125 -0.71875q0.328125 -0.265625 0.71875 -0.359375q0.40625 -0.109375 0.78125 -0.109375q0.25 0 0.5625 0.0625q0.328125 0.0625 0.625 0.234375q0.296875 0.171875 0.5 0.546875q0.203125 0.359375 0.203125 0.953125l0 3.359375l-0.78125 0l0 -0.6875l-0.046875 0q-0.078125 0.171875 -0.265625 0.359375q-0.1875 0.1875 -0.5 0.328125q-0.296875 0.125 -0.734375 0.125zm0.109375 -0.703125q0.46875 0 0.78125 -0.1875q0.328125 -0.1875 0.484375 -0.46875q0.171875 -0.296875 0.171875 -0.609375l0 -0.71875q-0.046875 0.0625 -0.21875 0.109375q-0.171875 0.046875 -0.390625 0.09375q-0.21875 0.03125 -0.421875 0.0625q-0.203125 0.015625 -0.328125 0.03125q-0.296875 0.046875 -0.5625 0.140625q-0.265625 0.078125 -0.421875 0.25q-0.15625 0.171875 -0.15625 0.46875q0 0.40625 0.296875 0.625q0.296875 0.203125 0.765625 0.203125zm3.6510315 0.578125l0 -5.09375l0.75 0l0 0.796875l0.0625 0q0.171875 -0.40625 0.515625 -0.625q0.359375 -0.234375 0.859375 -0.234375q0.5 0 0.828125 0.234375q0.34375 0.21875 0.53125 0.625l0.046875 0q0.203125 -0.390625 0.59375 -0.625q0.390625 -0.234375 0.9375 -0.234375q0.6875 0 1.109375 0.4375q0.4375 0.421875 0.4375 1.3125l0 3.40625l-0.78125 0l0 -3.40625q0 -0.5625 -0.3125 -0.796875q-0.296875 -0.25 -0.71875 -0.25q-0.53125 0 -0.828125 0.328125q-0.296875 0.3125 -0.296875 0.8125l0 3.3125l-0.796875 0l0 -3.484375q0 -0.4375 -0.28125 -0.703125q-0.28125 -0.265625 -0.71875 -0.265625q-0.3125 0 -0.578125 0.171875q-0.265625 0.15625 -0.421875 0.453125q-0.15625 0.28125 -0.15625 0.640625l0 3.1875l-0.78125 0zm8.109222 0l0 -5.09375l0.75 0l0 0.796875l0.0625 0q0.171875 -0.40625 0.515625 -0.625q0.359375 -0.234375 0.859375 -0.234375q0.5 0 0.828125 0.234375q0.34375 0.21875 0.53125 0.625l0.046875 0q0.203125 -0.390625 0.59375 -0.625q0.390625 -0.234375 0.9375 -0.234375q0.6875 0 1.109375 0.4375q0.4375 0.421875 0.4375 1.3125l0 3.40625l-0.78125 0l0 -3.40625q0 -0.5625 -0.3125 -0.796875q-0.296875 -0.25 -0.71875 -0.25q-0.53125 0 -0.828125 0.328125q-0.296875 0.3125 -0.296875 0.8125l0 3.3125l-0.796875 0l0 -3.484375q0 -0.4375 -0.28125 -0.703125q-0.28125 -0.265625 -0.71875 -0.265625q-0.3125 0 -0.578125 0.171875q-0.265625 0.15625 -0.421875 0.453125q-0.15625 0.28125 -0.15625 0.640625l0 3.1875l-0.78125 0zm10.234222 0.109375q-0.734375 0 -1.265625 -0.328125q-0.53125 -0.328125 -0.8125 -0.90625q-0.28125 -0.59375 -0.28125 -1.375q0 -0.78125 0.28125 -1.375q0.28125 -0.609375 0.796875 -0.9375q0.515625 -0.34375 1.203125 -0.34375q0.40625 0 0.78125 0.140625q0.390625 0.125 0.703125 0.421875q0.328125 0.296875 0.515625 0.78125q0.1875 0.484375 0.1875 1.203125l0 0.328125l-3.921875 0l0 -0.671875l3.125 0q0 -0.4375 -0.171875 -0.765625q-0.171875 -0.34375 -0.484375 -0.53125q-0.3125 -0.203125 -0.734375 -0.203125q-0.46875 0 -0.8125 0.234375q-0.328125 0.234375 -0.515625 0.609375q-0.171875 0.359375 -0.171875 0.78125l0 0.4375q0 0.578125 0.1875 0.984375q0.203125 0.390625 0.5625 0.609375q0.359375 0.203125 0.828125 0.203125q0.3125 0 0.5625 -0.078125q0.25 -0.09375 0.421875 -0.265625q0.1875 -0.1875 0.296875 -0.453125l0.75 0.21875q-0.125 0.375 -0.40625 0.671875q-0.28125 0.28125 -0.703125 0.453125q-0.40625 0.15625 -0.921875 0.15625zm3.3076477 -0.109375l0 -5.09375l0.75 0l0 0.78125l0.0625 0q0.125 -0.390625 0.484375 -0.625q0.375 -0.234375 0.828125 -0.234375q0.09375 0 0.21875 0.015625q0.125 0 0.203125 0l0 0.796875q-0.046875 -0.015625 -0.1875 -0.03125q-0.140625 -0.015625 -0.296875 -0.015625q-0.375 0 -0.671875 0.15625q-0.28125 0.140625 -0.453125 0.421875q-0.15625 0.265625 -0.15625 0.609375l0 3.21875l-0.78125 0zm7.065338 -3.953125l-0.6875 0.203125q-0.078125 -0.171875 -0.203125 -0.34375q-0.125 -0.171875 -0.34375 -0.28125q-0.21875 -0.109375 -0.5625 -0.109375q-0.46875 0 -0.78125 0.21875q-0.296875 0.21875 -0.296875 0.546875q0 0.28125 0.203125 0.453125q0.21875 0.171875 0.671875 0.28125l0.75 0.1875q0.6875 0.171875 1.015625 0.515625q0.328125 0.328125 0.328125 0.859375q0 0.4375 -0.25 0.78125q-0.25 0.34375 -0.703125 0.546875q-0.4375 0.203125 -1.03125 0.203125q-0.78125 0 -1.296875 -0.328125q-0.5 -0.34375 -0.640625 -1.0l0.75 -0.1875q0.109375 0.40625 0.40625 0.625q0.296875 0.203125 0.765625 0.203125q0.546875 0 0.875 -0.234375q0.328125 -0.234375 0.328125 -0.5625q0 -0.265625 -0.1875 -0.4375q-0.1875 -0.1875 -0.578125 -0.28125l-0.84375 -0.203125q-0.703125 -0.15625 -1.03125 -0.5q-0.3125 -0.359375 -0.3125 -0.890625q0 -0.421875 0.234375 -0.75q0.25 -0.34375 0.671875 -0.53125q0.421875 -0.1875 0.953125 -0.1875q0.75 0 1.1875 0.34375q0.4375 0.328125 0.609375 0.859375z" fill-rule="nonzero"/><path fill="#000000" fill-opacity="0.0" d="m244.38846 83.685036l82.20471 0l0 42.015755l-82.20471 0z" fill-rule="evenodd"/><path fill="#262732" d="m253.38846 92.685036l59.21576 0l0 11.200005l-59.21576 0l0 -11.200005z" fill-rule="nonzero"/><path fill="#000000" fill-opacity="0.0" d="m253.38846 92.6083l59.21576 0l0 11.289299l-59.21576 0l0 -11.289299z" fill-rule="nonzero"/><path fill="#d9d9d9" d="m254.21658 101.645035l0 -6.78125l2.28125 0q0.796875 0 1.296875 0.28125q0.515625 0.28125 0.765625 0.78125q0.25 0.484375 0.25 1.078125q0 0.609375 -0.25 1.09375q-0.234375 0.484375 -0.75 0.78125q-0.5 0.28125 -1.296875 0.28125l-1.640625 0l0 -0.71875l1.609375 0q0.546875 0 0.875 -0.1875q0.34375 -0.1875 0.484375 -0.515625q0.15625 -0.328125 0.15625 -0.734375q0 -0.40625 -0.15625 -0.71875q-0.140625 -0.328125 -0.484375 -0.515625q-0.328125 -0.1875 -0.875 -0.1875l-1.453125 0l0 6.0625l-0.8125 0zm5.8135376 0l0 -5.09375l0.75 0l0 0.78125l0.0625 0q0.125 -0.390625 0.484375 -0.625q0.375 -0.234375 0.828125 -0.234375q0.09375 0 0.21875 0.015625q0.125 0 0.203125 0l0 0.796875q-0.046875 -0.015625 -0.1875 -0.03125q-0.140625 -0.015625 -0.296875 -0.015625q-0.375 0 -0.671875 0.15625q-0.28125 0.140625 -0.453125 0.421875q-0.15625 0.265625 -0.15625 0.609375l0 3.21875l-0.78125 0zm5.375 0.109375q-0.6875 0 -1.203125 -0.328125q-0.515625 -0.328125 -0.8125 -0.921875q-0.28125 -0.59375 -0.28125 -1.375q0 -0.796875 0.28125 -1.390625q0.296875 -0.59375 0.8125 -0.921875q0.515625 -0.328125 1.203125 -0.328125q0.6875 0 1.203125 0.328125q0.53125 0.328125 0.8125 0.921875q0.296875 0.59375 0.296875 1.390625q0 0.78125 -0.296875 1.375q-0.28125 0.59375 -0.8125 0.921875q-0.515625 0.328125 -1.203125 0.328125zm0 -0.703125q0.53125 0 0.859375 -0.265625q0.34375 -0.28125 0.5 -0.703125q0.171875 -0.4375 0.171875 -0.953125q0 -0.515625 -0.171875 -0.953125q-0.15625 -0.4375 -0.5 -0.703125q-0.328125 -0.28125 -0.859375 -0.28125q-0.515625 0 -0.859375 0.28125q-0.34375 0.265625 -0.5 0.703125q-0.15625 0.4375 -0.15625 0.953125q0 0.515625 0.15625 0.953125q0.15625 0.421875 0.5 0.703125q0.34375 0.265625 0.859375 0.265625zm5.54953 2.609375q-0.5625 0 -0.96875 -0.15625q-0.40625 -0.140625 -0.6875 -0.375q-0.265625 -0.21875 -0.421875 -0.484375l0.625 -0.4375q0.109375 0.140625 0.265625 0.3125q0.171875 0.1875 0.453125 0.3125q0.28125 0.140625 0.734375 0.140625q0.625 0 1.015625 -0.296875q0.40625 -0.296875 0.40625 -0.9375l0 -1.03125l-0.0625 0q-0.09375 0.140625 -0.25 0.34375q-0.15625 0.203125 -0.453125 0.359375q-0.28125 0.15625 -0.78125 0.15625q-0.625 0 -1.109375 -0.28125q-0.484375 -0.296875 -0.765625 -0.859375q-0.28125 -0.5625 -0.28125 -1.359375q0 -0.78125 0.265625 -1.359375q0.28125 -0.578125 0.765625 -0.890625q0.484375 -0.328125 1.140625 -0.328125q0.484375 0 0.78125 0.171875q0.296875 0.15625 0.453125 0.375q0.15625 0.203125 0.25 0.328125l0.078125 0l0 -0.8125l0.75 0l0 5.234375q0 0.65625 -0.296875 1.0625q-0.296875 0.421875 -0.796875 0.609375q-0.5 0.203125 -1.109375 0.203125zm-0.015625 -2.796875q0.46875 0 0.78125 -0.21875q0.328125 -0.21875 0.5 -0.609375q0.171875 -0.40625 0.171875 -0.96875q0 -0.5625 -0.171875 -0.96875q-0.15625 -0.421875 -0.484375 -0.65625q-0.328125 -0.25 -0.796875 -0.25q-0.5 0 -0.828125 0.25q-0.328125 0.25 -0.5 0.6875q-0.15625 0.421875 -0.15625 0.9375q0 0.53125 0.15625 0.9375q0.171875 0.390625 0.5 0.625q0.328125 0.234375 0.828125 0.234375zm3.6531372 0.78125l0 -5.09375l0.75 0l0 0.78125l0.0625 0q0.125 -0.390625 0.484375 -0.625q0.375 -0.234375 0.828125 -0.234375q0.09375 0 0.21875 0.015625q0.125 0 0.203125 0l0 0.796875q-0.046875 -0.015625 -0.1875 -0.03125q-0.140625 -0.015625 -0.296875 -0.015625q-0.375 0 -0.671875 0.15625q-0.28125 0.140625 -0.453125 0.421875q-0.15625 0.265625 -0.15625 0.609375l0 3.21875l-0.78125 0zm4.971588 0.125q-0.484375 0 -0.890625 -0.1875q-0.390625 -0.1875 -0.625 -0.53125q-0.21875 -0.359375 -0.21875 -0.84375q0 -0.4375 0.171875 -0.703125q0.171875 -0.28125 0.453125 -0.4375q0.28125 -0.15625 0.625 -0.234375q0.359375 -0.078125 0.71875 -0.125q0.46875 -0.0625 0.75 -0.09375q0.296875 -0.03125 0.421875 -0.109375q0.140625 -0.078125 0.140625 -0.265625l0 -0.03125q0 -0.484375 -0.265625 -0.75q-0.265625 -0.28125 -0.8125 -0.28125q-0.5625 0 -0.875 0.25q-0.3125 0.25 -0.453125 0.515625l-0.734375 -0.265625q0.203125 -0.453125 0.53125 -0.71875q0.328125 -0.265625 0.71875 -0.359375q0.40625 -0.109375 0.78125 -0.109375q0.25 0 0.5625 0.0625q0.328125 0.0625 0.625 0.234375q0.296875 0.171875 0.5 0.546875q0.203125 0.359375 0.203125 0.953125l0 3.359375l-0.78125 0l0 -0.6875l-0.046875 0q-0.078125 0.171875 -0.265625 0.359375q-0.1875 0.1875 -0.5 0.328125q-0.296875 0.125 -0.734375 0.125zm0.109375 -0.703125q0.46875 0 0.78125 -0.1875q0.328125 -0.1875 0.484375 -0.46875q0.171875 -0.296875 0.171875 -0.609375l0 -0.71875q-0.046875 0.0625 -0.21875 0.109375q-0.171875 0.046875 -0.390625 0.09375q-0.21875 0.03125 -0.421875 0.0625q-0.203125 0.015625 -0.328125 0.03125q-0.296875 0.046875 -0.5625 0.140625q-0.265625 0.078125 -0.421875 0.25q-0.15625 0.171875 -0.15625 0.46875q0 0.40625 0.296875 0.625q0.296875 0.203125 0.765625 0.203125zm3.6510315 0.578125l0 -5.09375l0.75 0l0 0.796875l0.0625 0q0.171875 -0.40625 0.515625 -0.625q0.359375 -0.234375 0.859375 -0.234375q0.5 0 0.828125 0.234375q0.34375 0.21875 0.53125 0.625l0.046875 0q0.203125 -0.390625 0.59375 -0.625q0.390625 -0.234375 0.9375 -0.234375q0.6875 0 1.109375 0.4375q0.4375 0.421875 0.4375 1.3125l0 3.40625l-0.78125 0l0 -3.40625q0 -0.5625 -0.3125 -0.796875q-0.296875 -0.25 -0.71875 -0.25q-0.53125 0 -0.828125 0.328125q-0.296875 0.3125 -0.296875 0.8125l0 3.3125l-0.796875 0l0 -3.484375q0 -0.4375 -0.28125 -0.703125q-0.28125 -0.265625 -0.71875 -0.265625q-0.3125 0 -0.578125 0.171875q-0.265625 0.15625 -0.421875 0.453125q-0.15625 0.28125 -0.15625 0.640625l0 3.1875l-0.78125 0zm8.109222 0l0 -5.09375l0.75 0l0 0.796875l0.0625 0q0.171875 -0.40625 0.515625 -0.625q0.359375 -0.234375 0.859375 -0.234375q0.5 0 0.828125 0.234375q0.34375 0.21875 0.53125 0.625l0.046875 0q0.203125 -0.390625 0.59375 -0.625q0.390625 -0.234375 0.9375 -0.234375q0.6875 0 1.109375 0.4375q0.4375 0.421875 0.4375 1.3125l0 3.40625l-0.78125 0l0 -3.40625q0 -0.5625 -0.3125 -0.796875q-0.296875 -0.25 -0.71875 -0.25q-0.53125 0 -0.828125 0.328125q-0.296875 0.3125 -0.296875 0.8125l0 3.3125l-0.796875 0l0 -3.484375q0 -0.4375 -0.28125 -0.703125q-0.28125 -0.265625 -0.71875 -0.265625q-0.3125 0 -0.578125 0.171875q-0.265625 0.15625 -0.421875 0.453125q-0.15625 0.28125 -0.15625 0.640625l0 3.1875l-0.78125 0zm10.234222 0.109375q-0.734375 0 -1.265625 -0.328125q-0.53125 -0.328125 -0.8125 -0.90625q-0.28125 -0.59375 -0.28125 -1.375q0 -0.78125 0.28125 -1.375q0.28125 -0.609375 0.796875 -0.9375q0.515625 -0.34375 1.203125 -0.34375q0.40625 0 0.78125 0.140625q0.390625 0.125 0.703125 0.421875q0.328125 0.296875 0.515625 0.78125q0.1875 0.484375 0.1875 1.203125l0 0.328125l-3.921875 0l0 -0.671875l3.125 0q0 -0.4375 -0.171875 -0.765625q-0.171875 -0.34375 -0.484375 -0.53125q-0.3125 -0.203125 -0.734375 -0.203125q-0.46875 0 -0.8125 0.234375q-0.328125 0.234375 -0.515625 0.609375q-0.171875 0.359375 -0.171875 0.78125l0 0.4375q0 0.578125 0.1875 0.984375q0.203125 0.390625 0.5625 0.609375q0.359375 0.203125 0.828125 0.203125q0.3125 0 0.5625 -0.078125q0.25 -0.09375 0.421875 -0.265625q0.1875 -0.1875 0.296875 -0.453125l0.75 0.21875q-0.125 0.375 -0.40625 0.671875q-0.28125 0.28125 -0.703125 0.453125q-0.40625 0.15625 -0.921875 0.15625zm3.3076477 -0.109375l0 -5.09375l0.75 0l0 0.78125l0.0625 0q0.125 -0.390625 0.484375 -0.625q0.375 -0.234375 0.828125 -0.234375q0.09375 0 0.21875 0.015625q0.125 0 0.203125 0l0 0.796875q-0.046875 -0.015625 -0.1875 -0.03125q-0.140625 -0.015625 -0.296875 -0.015625q-0.375 0 -0.671875 0.15625q-0.28125 0.140625 -0.453125 0.421875q-0.15625 0.265625 -0.15625 0.609375l0 3.21875l-0.78125 0zm7.065338 -3.953125l-0.6875 0.203125q-0.078125 -0.171875 -0.203125 -0.34375q-0.125 -0.171875 -0.34375 -0.28125q-0.21875 -0.109375 -0.5625 -0.109375q-0.46875 0 -0.78125 0.21875q-0.296875 0.21875 -0.296875 0.546875q0 0.28125 0.203125 0.453125q0.21875 0.171875 0.671875 0.28125l0.75 0.1875q0.6875 0.171875 1.015625 0.515625q0.328125 0.328125 0.328125 0.859375q0 0.4375 -0.25 0.78125q-0.25 0.34375 -0.703125 0.546875q-0.4375 0.203125 -1.03125 0.203125q-0.78125 0 -1.296875 -0.328125q-0.5 -0.34375 -0.640625 -1.0l0.75 -0.1875q0.109375 0.40625 0.40625 0.625q0.296875 0.203125 0.765625 0.203125q0.546875 0 0.875 -0.234375q0.328125 -0.234375 0.328125 -0.5625q0 -0.265625 -0.1875 -0.4375q-0.1875 -0.1875 -0.578125 -0.28125l-0.84375 -0.203125q-0.703125 -0.15625 -1.03125 -0.5q-0.3125 -0.359375 -0.3125 -0.890625q0 -0.421875 0.234375 -0.75q0.25 -0.34375 0.671875 -0.53125q0.421875 -0.1875 0.953125 -0.1875q0.75 0 1.1875 0.34375q0.4375 0.328125 0.609375 0.859375z" fill-rule="nonzero"/><path fill="#000000" fill-opacity="0.0" d="m312.60422 92.6083l2.6235657 0l0 11.289299l-2.6235657 0l0 -11.289299z" fill-rule="nonzero"/><path fill="#262732" d="m253.38846 103.88504l59.056763 0l0 11.199997l-59.056763 0l0 -11.199997z" fill-rule="nonzero"/><path fill="#000000" fill-opacity="0.0" d="m253.38846 103.8083l59.056763 0l0 11.289299l-59.056763 0l0 -11.289299z" fill-rule="nonzero"/><path fill="#d9d9d9" d="m256.1697 112.954414q-0.6875 0 -1.203125 -0.328125q-0.515625 -0.328125 -0.8125 -0.921875q-0.28125 -0.59375 -0.28125 -1.375q0 -0.796875 0.28125 -1.390625q0.296875 -0.59375 0.8125 -0.921875q0.515625 -0.328125 1.203125 -0.328125q0.6875 0 1.203125 0.328125q0.53125 0.328125 0.8125 0.921875q0.296875 0.59375 0.296875 1.390625q0 0.78125 -0.296875 1.375q-0.28125 0.59375 -0.8125 0.921875q-0.515625 0.328125 -1.203125 0.328125zm0 -0.703125q0.53125 0 0.859375 -0.265625q0.34375 -0.28125 0.5 -0.703125q0.171875 -0.4375 0.171875 -0.953125q0 -0.515625 -0.171875 -0.953125q-0.15625 -0.4375 -0.5 -0.703125q-0.328125 -0.28125 -0.859375 -0.28125q-0.515625 0 -0.859375 0.28125q-0.34375 0.265625 -0.5 0.703125q-0.15625 0.4375 -0.15625 0.953125q0 0.515625 0.15625 0.953125q0.15625 0.421875 0.5 0.703125q0.34375 0.265625 0.859375 0.265625zm5.76828 -4.5l0 0.671875l-2.75 0l0 -0.671875l2.75 0zm-1.921875 5.09375l0 -5.796875q0 -0.4375 0.203125 -0.71875q0.203125 -0.296875 0.53125 -0.4375q0.328125 -0.15625 0.6875 -0.15625q0.296875 0 0.46875 0.046875q0.1875 0.046875 0.28125 0.09375l-0.21875 0.671875q-0.0625 -0.015625 -0.171875 -0.046875q-0.109375 -0.03125 -0.265625 -0.03125q-0.390625 0 -0.5625 0.203125q-0.171875 0.1875 -0.171875 0.5625l0 5.609375l-0.78125 0zm9.239136 -3.953125l-0.6875 0.203125q-0.078125 -0.171875 -0.203125 -0.34375q-0.125 -0.171875 -0.34375 -0.28125q-0.21875 -0.109375 -0.5625 -0.109375q-0.46875 0 -0.78125 0.21875q-0.296875 0.21875 -0.296875 0.546875q0 0.28125 0.203125 0.453125q0.21875 0.171875 0.671875 0.28125l0.75 0.1875q0.6875 0.171875 1.015625 0.515625q0.328125 0.328125 0.328125 0.859375q0 0.4375 -0.25 0.78125q-0.25 0.34375 -0.703125 0.546875q-0.4375 0.203125 -1.03125 0.203125q-0.78125 0 -1.296875 -0.328125q-0.5 -0.34375 -0.640625 -1.0l0.75 -0.1875q0.109375 0.40625 0.40625 0.625q0.296875 0.203125 0.765625 0.203125q0.546875 0 0.875 -0.234375q0.328125 -0.234375 0.328125 -0.5625q0 -0.265625 -0.1875 -0.4375q-0.1875 -0.1875 -0.578125 -0.28125l-0.84375 -0.203125q-0.703125 -0.15625 -1.03125 -0.5q-0.3125 -0.359375 -0.3125 -0.890625q0 -0.421875 0.234375 -0.75q0.25 -0.34375 0.671875 -0.53125q0.421875 -0.1875 0.953125 -0.1875q0.75 0 1.1875 0.34375q0.4375 0.328125 0.609375 0.859375zm1.2823792 3.953125l0 -5.09375l0.78125 0l0 5.09375l-0.78125 0zm0.390625 -5.9375q-0.21875 0 -0.390625 -0.15625q-0.15625 -0.15625 -0.15625 -0.375q0 -0.21875 0.15625 -0.375q0.171875 -0.15625 0.390625 -0.15625q0.234375 0 0.390625 0.15625q0.171875 0.15625 0.171875 0.375q0 0.21875 -0.171875 0.375q-0.15625 0.15625 -0.390625 0.15625zm1.8222046 5.9375l0 -5.09375l0.75 0l0 0.796875l0.0625 0q0.171875 -0.40625 0.515625 -0.625q0.359375 -0.234375 0.859375 -0.234375q0.5 0 0.828125 0.234375q0.34375 0.21875 0.53125 0.625l0.046875 0q0.203125 -0.390625 0.59375 -0.625q0.390625 -0.234375 0.9375 -0.234375q0.6875 0 1.109375 0.4375q0.4375 0.421875 0.4375 1.3125l0 3.40625l-0.78125 0l0 -3.40625q0 -0.5625 -0.3125 -0.796875q-0.296875 -0.25 -0.71875 -0.25q-0.53125 0 -0.828125 0.328125q-0.296875 0.3125 -0.296875 0.8125l0 3.3125l-0.796875 0l0 -3.484375q0 -0.4375 -0.28125 -0.703125q-0.28125 -0.265625 -0.71875 -0.265625q-0.3125 0 -0.578125 0.171875q-0.265625 0.15625 -0.421875 0.453125q-0.15625 0.28125 -0.15625 0.640625l0 3.1875l-0.78125 0zm8.109222 0l0 -5.09375l0.78125 0l0 5.09375l-0.78125 0zm0.390625 -5.9375q-0.21875 0 -0.390625 -0.15625q-0.15625 -0.15625 -0.15625 -0.375q0 -0.21875 0.15625 -0.375q0.171875 -0.15625 0.390625 -0.15625q0.234375 0 0.390625 0.15625q0.171875 0.15625 0.171875 0.375q0 0.21875 -0.171875 0.375q-0.15625 0.15625 -0.390625 0.15625zm2.603424 -0.84375l0 6.78125l-0.78125 0l0 -6.78125l0.78125 0zm2.9315796 6.90625q-0.484375 0 -0.890625 -0.1875q-0.390625 -0.1875 -0.625 -0.53125q-0.21875 -0.359375 -0.21875 -0.84375q0 -0.4375 0.171875 -0.703125q0.171875 -0.28125 0.453125 -0.4375q0.28125 -0.15625 0.625 -0.234375q0.359375 -0.078125 0.71875 -0.125q0.46875 -0.0625 0.75 -0.09375q0.296875 -0.03125 0.421875 -0.109375q0.140625 -0.078125 0.140625 -0.265625l0 -0.03125q0 -0.484375 -0.265625 -0.75q-0.265625 -0.28125 -0.8125 -0.28125q-0.5625 0 -0.875 0.25q-0.3125 0.25 -0.453125 0.515625l-0.734375 -0.265625q0.203125 -0.453125 0.53125 -0.71875q0.328125 -0.265625 0.71875 -0.359375q0.40625 -0.109375 0.78125 -0.109375q0.25 0 0.5625 0.0625q0.328125 0.0625 0.625 0.234375q0.296875 0.171875 0.5 0.546875q0.203125 0.359375 0.203125 0.953125l0 3.359375l-0.78125 0l0 -0.6875l-0.046875 0q-0.078125 0.171875 -0.265625 0.359375q-0.1875 0.1875 -0.5 0.328125q-0.296875 0.125 -0.734375 0.125zm0.109375 -0.703125q0.46875 0 0.78125 -0.1875q0.328125 -0.1875 0.484375 -0.46875q0.171875 -0.296875 0.171875 -0.609375l0 -0.71875q-0.046875 0.0625 -0.21875 0.109375q-0.171875 0.046875 -0.390625 0.09375q-0.21875 0.03125 -0.421875 0.0625q-0.203125 0.015625 -0.328125 0.03125q-0.296875 0.046875 -0.5625 0.140625q-0.265625 0.078125 -0.421875 0.25q-0.15625 0.171875 -0.15625 0.46875q0 0.40625 0.296875 0.625q0.296875 0.203125 0.765625 0.203125zm3.651001 0.578125l0 -5.09375l0.75 0l0 0.78125l0.0625 0q0.125 -0.390625 0.484375 -0.625q0.375 -0.234375 0.828125 -0.234375q0.09375 0 0.21875 0.015625q0.125 0 0.203125 0l0 0.796875q-0.046875 -0.015625 -0.1875 -0.03125q-0.140625 -0.015625 -0.296875 -0.015625q-0.375 0 -0.671875 0.15625q-0.28125 0.140625 -0.453125 0.421875q-0.15625 0.265625 -0.15625 0.609375l0 3.21875l-0.78125 0zm6.095154 0l0 -5.09375l0.75 0l0 0.78125l0.0625 0q0.125 -0.390625 0.484375 -0.625q0.375 -0.234375 0.828125 -0.234375q0.09375 0 0.21875 0.015625q0.125 0 0.203125 0l0 0.796875q-0.046875 -0.015625 -0.1875 -0.03125q-0.140625 -0.015625 -0.296875 -0.015625q-0.375 0 -0.671875 0.15625q-0.28125 0.140625 -0.453125 0.421875q-0.15625 0.265625 -0.15625 0.609375l0 3.21875l-0.78125 0zm5.375 0.109375q-0.6875 0 -1.203125 -0.328125q-0.515625 -0.328125 -0.8125 -0.921875q-0.28125 -0.59375 -0.28125 -1.375q0 -0.796875 0.28125 -1.390625q0.296875 -0.59375 0.8125 -0.921875q0.515625 -0.328125 1.203125 -0.328125q0.6875 0 1.203125 0.328125q0.53125 0.328125 0.8125 0.921875q0.296875 0.59375 0.296875 1.390625q0 0.78125 -0.296875 1.375q-0.28125 0.59375 -0.8125 0.921875q-0.515625 0.328125 -1.203125 0.328125zm0 -0.703125q0.53125 0 0.859375 -0.265625q0.34375 -0.28125 0.5 -0.703125q0.171875 -0.4375 0.171875 -0.953125q0 -0.515625 -0.171875 -0.953125q-0.15625 -0.4375 -0.5 -0.703125q-0.328125 -0.28125 -0.859375 -0.28125q-0.515625 0 -0.859375 0.28125q-0.34375 0.265625 -0.5 0.703125q-0.15625 0.4375 -0.15625 0.953125q0 0.515625 0.15625 0.953125q0.15625 0.421875 0.5 0.703125q0.34375 0.265625 0.859375 0.265625zm4.283905 -6.1875l0 6.78125l-0.78125 0l0 -6.78125l0.78125 0zm3.5565796 6.890625q-0.734375 0 -1.265625 -0.328125q-0.53125 -0.328125 -0.8125 -0.90625q-0.28125 -0.59375 -0.28125 -1.375q0 -0.78125 0.28125 -1.375q0.28125 -0.609375 0.796875 -0.9375q0.515625 -0.34375 1.203125 -0.34375q0.40625 0 0.78125 0.140625q0.390625 0.125 0.703125 0.421875q0.328125 0.296875 0.515625 0.78125q0.1875 0.484375 0.1875 1.203125l0 0.328125l-3.921875 0l0 -0.671875l3.125 0q0 -0.4375 -0.171875 -0.765625q-0.171875 -0.34375 -0.484375 -0.53125q-0.3125 -0.203125 -0.734375 -0.203125q-0.46875 0 -0.8125 0.234375q-0.328125 0.234375 -0.515625 0.609375q-0.171875 0.359375 -0.171875 0.78125l0 0.4375q0 0.578125 0.1875 0.984375q0.203125 0.390625 0.5625 0.609375q0.359375 0.203125 0.828125 0.203125q0.3125 0 0.5625 -0.078125q0.25 -0.09375 0.421875 -0.265625q0.1875 -0.1875 0.296875 -0.453125l0.75 0.21875q-0.125 0.375 -0.40625 0.671875q-0.28125 0.28125 -0.703125 0.453125q-0.40625 0.15625 -0.921875 0.15625z" fill-rule="nonzero"/><path fill="#000000" fill-opacity="0.0" d="m312.44522 103.8083l2.6235657 0l0 11.289299l-2.6235657 0l0 -11.289299z" fill-rule="nonzero"/><path fill="#000000" fill-opacity="0.0" d="m410.10236 35.59055l96.25198 0l0 30.70866l-96.25198 0z" fill-rule="evenodd"/><path fill="#d7d8df" d="m420.1961 53.55055l-0.859375 0l2.5 -6.78125l0.84375 0l2.484375 6.78125l-0.859375 0l-2.015625 -5.703125l-0.0625 0l-2.03125 5.703125zm0.328125 -2.65625l3.46875 0l0 0.734375l-3.46875 0l0 -0.734375zm6.385315 -4.125l0 6.78125l-0.78125 0l0 -6.78125l0.78125 0zm2.212799 0l0 6.78125l-0.78125 0l0 -6.78125l0.78125 0zm4.0551453 8.6875l0 -7.0l0.75 0l0 0.8125l0.09375 0q0.09375 -0.125 0.234375 -0.328125q0.15625 -0.21875 0.4375 -0.375q0.296875 -0.171875 0.796875 -0.171875q0.640625 0 1.125 0.328125q0.5 0.3125 0.765625 0.90625q0.28125 0.59375 0.28125 1.390625q0 0.8125 -0.28125 1.40625q-0.265625 0.578125 -0.75 0.90625q-0.484375 0.328125 -1.125 0.328125q-0.484375 0 -0.78125 -0.15625q-0.296875 -0.171875 -0.453125 -0.375q-0.15625 -0.21875 -0.25 -0.359375l-0.0625 0l0 2.6875l-0.78125 0zm0.765625 -4.453125q0 0.578125 0.171875 1.015625q0.171875 0.4375 0.484375 0.6875q0.328125 0.25 0.796875 0.25q0.5 0 0.828125 -0.25q0.328125 -0.265625 0.484375 -0.703125q0.171875 -0.453125 0.171875 -1.0q0 -0.53125 -0.171875 -0.953125q-0.15625 -0.4375 -0.484375 -0.6875q-0.328125 -0.265625 -0.828125 -0.265625q-0.46875 0 -0.796875 0.25q-0.328125 0.234375 -0.5 0.671875q-0.15625 0.421875 -0.15625 0.984375zm4.918762 2.546875l0 -5.09375l0.75 0l0 0.78125l0.0625 0q0.125 -0.390625 0.484375 -0.625q0.375 -0.234375 0.828125 -0.234375q0.09375 0 0.21875 0.015625q0.125 0 0.203125 0l0 0.796875q-0.046875 -0.015625 -0.1875 -0.03125q-0.140625 -0.015625 -0.296875 -0.015625q-0.375 0 -0.671875 0.15625q-0.28125 0.140625 -0.453125 0.421875q-0.15625 0.265625 -0.15625 0.609375l0 3.21875l-0.78125 0zm5.375 0.109375q-0.6875 0 -1.203125 -0.328125q-0.515625 -0.328125 -0.8125 -0.921875q-0.28125 -0.59375 -0.28125 -1.375q0 -0.796875 0.28125 -1.390625q0.296875 -0.59375 0.8125 -0.921875q0.515625 -0.328125 1.203125 -0.328125q0.6875 0 1.203125 0.328125q0.53125 0.328125 0.8125 0.921875q0.296875 0.59375 0.296875 1.390625q0 0.78125 -0.296875 1.375q-0.28125 0.59375 -0.8125 0.921875q-0.515625 0.328125 -1.203125 0.328125zm0 -0.703125q0.53125 0 0.859375 -0.265625q0.34375 -0.28125 0.5 -0.703125q0.171875 -0.4375 0.171875 -0.953125q0 -0.515625 -0.171875 -0.953125q-0.15625 -0.4375 -0.5 -0.703125q-0.328125 -0.28125 -0.859375 -0.28125q-0.515625 0 -0.859375 0.28125q-0.34375 0.265625 -0.5 0.703125q-0.15625 0.4375 -0.15625 0.953125q0 0.515625 0.15625 0.953125q0.15625 0.421875 0.5 0.703125q0.34375 0.265625 0.859375 0.265625zm5.54953 2.609375q-0.5625 0 -0.96875 -0.15625q-0.40625 -0.140625 -0.6875 -0.375q-0.265625 -0.21875 -0.421875 -0.484375l0.625 -0.4375q0.109375 0.140625 0.265625 0.3125q0.171875 0.1875 0.453125 0.3125q0.28125 0.140625 0.734375 0.140625q0.625 0 1.015625 -0.296875q0.40625 -0.296875 0.40625 -0.9375l0 -1.03125l-0.0625 0q-0.09375 0.140625 -0.25 0.34375q-0.15625 0.203125 -0.453125 0.359375q-0.28125 0.15625 -0.78125 0.15625q-0.625 0 -1.109375 -0.28125q-0.484375 -0.296875 -0.765625 -0.859375q-0.28125 -0.5625 -0.28125 -1.359375q0 -0.78125 0.265625 -1.359375q0.28125 -0.578125 0.765625 -0.890625q0.484375 -0.328125 1.140625 -0.328125q0.484375 0 0.78125 0.171875q0.296875 0.15625 0.453125 0.375q0.15625 0.203125 0.25 0.328125l0.078125 0l0 -0.8125l0.75 0l0 5.234375q0 0.65625 -0.296875 1.0625q-0.296875 0.421875 -0.796875 0.609375q-0.5 0.203125 -1.109375 0.203125zm-0.015625 -2.796875q0.46875 0 0.78125 -0.21875q0.328125 -0.21875 0.5 -0.609375q0.171875 -0.40625 0.171875 -0.96875q0 -0.5625 -0.171875 -0.96875q-0.15625 -0.421875 -0.484375 -0.65625q-0.328125 -0.25 -0.796875 -0.25q-0.5 0 -0.828125 0.25q-0.328125 0.25 -0.5 0.6875q-0.15625 0.421875 -0.15625 0.9375q0 0.53125 0.15625 0.9375q0.171875 0.390625 0.5 0.625q0.328125 0.234375 0.828125 0.234375zm3.6531677 0.78125l0 -5.09375l0.75 0l0 0.78125l0.0625 0q0.125 -0.390625 0.484375 -0.625q0.375 -0.234375 0.828125 -0.234375q0.09375 0 0.21875 0.015625q0.125 0 0.203125 0l0 0.796875q-0.046875 -0.015625 -0.1875 -0.03125q-0.140625 -0.015625 -0.296875 -0.015625q-0.375 0 -0.671875 0.15625q-0.28125 0.140625 -0.453125 0.421875q-0.15625 0.265625 -0.15625 0.609375l0 3.21875l-0.78125 0zm4.971588 0.125q-0.484375 0 -0.890625 -0.1875q-0.390625 -0.1875 -0.625 -0.53125q-0.21875 -0.359375 -0.21875 -0.84375q0 -0.4375 0.171875 -0.703125q0.171875 -0.28125 0.453125 -0.4375q0.28125 -0.15625 0.625 -0.234375q0.359375 -0.078125 0.71875 -0.125q0.46875 -0.0625 0.75 -0.09375q0.296875 -0.03125 0.421875 -0.109375q0.140625 -0.078125 0.140625 -0.265625l0 -0.03125q0 -0.484375 -0.265625 -0.75q-0.265625 -0.28125 -0.8125 -0.28125q-0.5625 0 -0.875 0.25q-0.3125 0.25 -0.453125 0.515625l-0.734375 -0.265625q0.203125 -0.453125 0.53125 -0.71875q0.328125 -0.265625 0.71875 -0.359375q0.40625 -0.109375 0.78125 -0.109375q0.25 0 0.5625 0.0625q0.328125 0.0625 0.625 0.234375q0.296875 0.171875 0.5 0.546875q0.203125 0.359375 0.203125 0.953125l0 3.359375l-0.78125 0l0 -0.6875l-0.046875 0q-0.078125 0.171875 -0.265625 0.359375q-0.1875 0.1875 -0.5 0.328125q-0.296875 0.125 -0.734375 0.125zm0.109375 -0.703125q0.46875 0 0.78125 -0.1875q0.328125 -0.1875 0.484375 -0.46875q0.171875 -0.296875 0.171875 -0.609375l0 -0.71875q-0.046875 0.0625 -0.21875 0.109375q-0.171875 0.046875 -0.390625 0.09375q-0.21875 0.03125 -0.421875 0.0625q-0.203125 0.015625 -0.328125 0.03125q-0.296875 0.046875 -0.5625 0.140625q-0.265625 0.078125 -0.421875 0.25q-0.15625 0.171875 -0.15625 0.46875q0 0.40625 0.296875 0.625q0.296875 0.203125 0.765625 0.203125zm3.651001 0.578125l0 -5.09375l0.75 0l0 0.796875l0.0625 0q0.171875 -0.40625 0.515625 -0.625q0.359375 -0.234375 0.859375 -0.234375q0.5 0 0.828125 0.234375q0.34375 0.21875 0.53125 0.625l0.046875 0q0.203125 -0.390625 0.59375 -0.625q0.390625 -0.234375 0.9375 -0.234375q0.6875 0 1.109375 0.4375q0.4375 0.421875 0.4375 1.3125l0 3.40625l-0.78125 0l0 -3.40625q0 -0.5625 -0.3125 -0.796875q-0.296875 -0.25 -0.71875 -0.25q-0.53125 0 -0.828125 0.328125q-0.296875 0.3125 -0.296875 0.8125l0 3.3125l-0.796875 0l0 -3.484375q0 -0.4375 -0.28125 -0.703125q-0.28125 -0.265625 -0.71875 -0.265625q-0.3125 0 -0.578125 0.171875q-0.265625 0.15625 -0.421875 0.453125q-0.15625 0.28125 -0.15625 0.640625l0 3.1875l-0.78125 0zm8.109222 0l0 -5.09375l0.75 0l0 0.796875l0.0625 0q0.171875 -0.40625 0.515625 -0.625q0.359375 -0.234375 0.859375 -0.234375q0.5 0 0.828125 0.234375q0.34375 0.21875 0.53125 0.625l0.046875 0q0.203125 -0.390625 0.59375 -0.625q0.390625 -0.234375 0.9375 -0.234375q0.6875 0 1.109375 0.4375q0.4375 0.421875 0.4375 1.3125l0 3.40625l-0.78125 0l0 -3.40625q0 -0.5625 -0.3125 -0.796875q-0.296875 -0.25 -0.71875 -0.25q-0.53125 0 -0.828125 0.328125q-0.296875 0.3125 -0.296875 0.8125l0 3.3125l-0.796875 0l0 -3.484375q0 -0.4375 -0.28125 -0.703125q-0.28125 -0.265625 -0.71875 -0.265625q-0.3125 0 -0.578125 0.171875q-0.265625 0.15625 -0.421875 0.453125q-0.15625 0.28125 -0.15625 0.640625l0 3.1875l-0.78125 0zm10.234222 0.109375q-0.734375 0 -1.265625 -0.328125q-0.53125 -0.328125 -0.8125 -0.90625q-0.28125 -0.59375 -0.28125 -1.375q0 -0.78125 0.28125 -1.375q0.28125 -0.609375 0.796875 -0.9375q0.515625 -0.34375 1.203125 -0.34375q0.40625 0 0.78125 0.140625q0.390625 0.125 0.703125 0.421875q0.328125 0.296875 0.515625 0.78125q0.1875 0.484375 0.1875 1.203125l0 0.328125l-3.921875 0l0 -0.671875l3.125 0q0 -0.4375 -0.171875 -0.765625q-0.171875 -0.34375 -0.484375 -0.53125q-0.3125 -0.203125 -0.734375 -0.203125q-0.46875 0 -0.8125 0.234375q-0.328125 0.234375 -0.515625 0.609375q-0.171875 0.359375 -0.171875 0.78125l0 0.4375q0 0.578125 0.1875 0.984375q0.203125 0.390625 0.5625 0.609375q0.359375 0.203125 0.828125 0.203125q0.3125 0 0.5625 -0.078125q0.25 -0.09375 0.421875 -0.265625q0.1875 -0.1875 0.296875 -0.453125l0.75 0.21875q-0.125 0.375 -0.40625 0.671875q-0.28125 0.28125 -0.703125 0.453125q-0.40625 0.15625 -0.921875 0.15625zm3.3076477 -0.109375l0 -5.09375l0.75 0l0 0.78125l0.0625 0q0.125 -0.390625 0.484375 -0.625q0.375 -0.234375 0.828125 -0.234375q0.09375 0 0.21875 0.015625q0.125 0 0.203125 0l0 0.796875q-0.046875 -0.015625 -0.1875 -0.03125q-0.140625 -0.015625 -0.296875 -0.015625q-0.375 0 -0.671875 0.15625q-0.28125 0.140625 -0.453125 0.421875q-0.15625 0.265625 -0.15625 0.609375l0 3.21875l-0.78125 0zm7.065338 -3.953125l-0.6875 0.203125q-0.078125 -0.171875 -0.203125 -0.34375q-0.125 -0.171875 -0.34375 -0.28125q-0.21875 -0.109375 -0.5625 -0.109375q-0.46875 0 -0.78125 0.21875q-0.296875 0.21875 -0.296875 0.546875q0 0.28125 0.203125 0.453125q0.21875 0.171875 0.671875 0.28125l0.75 0.1875q0.6875 0.171875 1.015625 0.515625q0.328125 0.328125 0.328125 0.859375q0 0.4375 -0.25 0.78125q-0.25 0.34375 -0.703125 0.546875q-0.4375 0.203125 -1.03125 0.203125q-0.78125 0 -1.296875 -0.328125q-0.5 -0.34375 -0.640625 -1.0l0.75 -0.1875q0.109375 0.40625 0.40625 0.625q0.296875 0.203125 0.765625 0.203125q0.546875 0 0.875 -0.234375q0.328125 -0.234375 0.328125 -0.5625q0 -0.265625 -0.1875 -0.4375q-0.1875 -0.1875 -0.578125 -0.28125l-0.84375 -0.203125q-0.703125 -0.15625 -1.03125 -0.5q-0.3125 -0.359375 -0.3125 -0.890625q0 -0.421875 0.234375 -0.75q0.25 -0.34375 0.671875 -0.53125q0.421875 -0.1875 0.953125 -0.1875q0.75 0 1.1875 0.34375q0.4375 0.328125 0.609375 0.859375z" fill-rule="nonzero"/><path fill="#000000" fill-opacity="0.0" d="m46.194225 340.98688l0 0c0 -56.002533 45.39903 -101.40158 101.401566 -101.40158l0 0c26.893372 0 52.685257 10.68335 71.70175 29.69983c19.01648 19.01648 29.69983 44.80838 29.69983 71.70175l0 0c0 56.002533 -45.399033 101.40158 -101.40158 101.40158l0 0c-56.00254 0 -101.401566 -45.399048 -101.401566 -101.40158z" fill-rule="evenodd"/><path stroke="#d7d8df" stroke-width="1.0" stroke-linejoin="round" stroke-linecap="butt" d="m46.194225 340.98688l0 0c0 -56.002533 45.39903 -101.40158 101.401566 -101.40158l0 0c26.893372 0 52.685257 10.68335 71.70175 29.69983c19.01648 19.01648 29.69983 44.80838 29.69983 71.70175l0 0c0 56.002533 -45.399033 101.40158 -101.40158 101.40158l0 0c-56.00254 0 -101.401566 -45.399048 -101.401566 -101.40158z" fill-rule="evenodd"/><path fill="#000000" fill-opacity="0.0" d="m75.25984 271.99213l82.20473 0l0 42.015747l-82.20473 0z" fill-rule="evenodd"/><path fill="#d7d8df" d="m114.77195 283.17087l0 6.78125l-0.828125 0l0 -5.921875l-0.046875 0l-1.65625 1.09375l0 -0.828125l1.703125 -1.125l0.828125 0zm2.5359955 1.6875l1.21875 2.078125l1.21875 -2.078125l0.90625 0l-1.640625 2.546875l1.640625 2.546875l-0.90625 0l-1.21875 -1.96875l-1.21875 1.96875l-0.90625 0l1.625 -2.546875l-1.625 -2.546875l0.90625 0z" fill-rule="nonzero"/><path fill="#d7d8df" d="m87.59233 303.05838l0 -7.0l0.75 0l0 0.8125l0.09375 0q0.09375 -0.125 0.234375 -0.328125q0.15625 -0.21875 0.4375 -0.375q0.296875 -0.171875 0.796875 -0.171875q0.640625 0 1.125 0.328125q0.5 0.3125 0.765625 0.90625q0.28125 0.59375 0.28125 1.390625q0 0.8125 -0.28125 1.40625q-0.265625 0.578125 -0.75 0.90625q-0.484375 0.328125 -1.125 0.328125q-0.484375 0 -0.78125 -0.15625q-0.296875 -0.171875 -0.453125 -0.375q-0.15625 -0.21875 -0.25 -0.359375l-0.0625 0l0 2.6875l-0.78125 0zm0.765625 -4.453125q0 0.578125 0.171875 1.015625q0.171875 0.4375 0.484375 0.6875q0.328125 0.25 0.796875 0.25q0.5 0 0.828125 -0.25q0.328125 -0.265625 0.484375 -0.703125q0.171875 -0.453125 0.171875 -1.0q0 -0.53125 -0.171875 -0.953125q-0.15625 -0.4375 -0.484375 -0.6875q-0.328125 -0.265625 -0.828125 -0.265625q-0.46875 0 -0.796875 0.25q-0.328125 0.234375 -0.5 0.671875q-0.15625 0.421875 -0.15625 0.984375zm4.9187775 2.546875l0 -5.09375l0.75 0l0 0.78125l0.0625 0q0.125 -0.390625 0.484375 -0.625q0.375 -0.234375 0.828125 -0.234375q0.09375 0 0.21875 0.015625q0.125 0 0.203125 0l0 0.796875q-0.046875 -0.015625 -0.1875 -0.03125q-0.140625 -0.015625 -0.296875 -0.015625q-0.375 0 -0.671875 0.15625q-0.28125 0.140625 -0.453125 0.421875q-0.15625 0.265625 -0.15625 0.609375l0 3.21875l-0.78125 0zm5.375 0.109375q-0.6875 0 -1.203125 -0.328125q-0.515625 -0.328125 -0.8125 -0.921875q-0.28125 -0.59375 -0.28125 -1.375q0 -0.796875 0.28125 -1.390625q0.296875 -0.59375 0.8125 -0.921875q0.515625 -0.328125 1.203125 -0.328125q0.6875 0 1.203125 0.328125q0.53125 0.328125 0.8125 0.921875q0.296875 0.59375 0.296875 1.390625q0 0.78125 -0.296875 1.375q-0.28125 0.59375 -0.8125 0.921875q-0.515625 0.328125 -1.203125 0.328125zm0 -0.703125q0.53125 0 0.859375 -0.265625q0.34375 -0.28125 0.5 -0.703125q0.171875 -0.4375 0.171875 -0.953125q0 -0.515625 -0.171875 -0.953125q-0.15625 -0.4375 -0.5 -0.703125q-0.328125 -0.28125 -0.859375 -0.28125q-0.515625 0 -0.859375 0.28125q-0.34375 0.265625 -0.5 0.703125q-0.15625 0.4375 -0.15625 0.953125q0 0.515625 0.15625 0.953125q0.15625 0.421875 0.5 0.703125q0.34375 0.265625 0.859375 0.265625zm5.54953 2.609375q-0.5625 0 -0.96875 -0.15625q-0.40625 -0.140625 -0.6875 -0.375q-0.265625 -0.21875 -0.421875 -0.484375l0.625 -0.4375q0.109375 0.140625 0.265625 0.3125q0.171875 0.1875 0.453125 0.3125q0.28125 0.140625 0.734375 0.140625q0.625 0 1.015625 -0.296875q0.40625 -0.296875 0.40625 -0.9375l0 -1.03125l-0.0625 0q-0.09375 0.140625 -0.25 0.34375q-0.15625 0.203125 -0.453125 0.359375q-0.28125 0.15625 -0.78125 0.15625q-0.625 0 -1.109375 -0.28125q-0.484375 -0.296875 -0.765625 -0.859375q-0.28125 -0.5625 -0.28125 -1.359375q0 -0.78125 0.265625 -1.359375q0.28125 -0.578125 0.765625 -0.890625q0.484375 -0.328125 1.140625 -0.328125q0.484375 0 0.78125 0.171875q0.296875 0.15625 0.453125 0.375q0.15625 0.203125 0.25 0.328125l0.078125 0l0 -0.8125l0.75 0l0 5.234375q0 0.65625 -0.296875 1.0625q-0.296875 0.421875 -0.796875 0.609375q-0.5 0.203125 -1.109375 0.203125zm-0.015625 -2.796875q0.46875 0 0.78125 -0.21875q0.328125 -0.21875 0.5 -0.609375q0.171875 -0.40625 0.171875 -0.96875q0 -0.5625 -0.171875 -0.96875q-0.15625 -0.421875 -0.484375 -0.65625q-0.328125 -0.25 -0.796875 -0.25q-0.5 0 -0.828125 0.25q-0.328125 0.25 -0.5 0.6875q-0.15625 0.421875 -0.15625 0.9375q0 0.53125 0.15625 0.9375q0.171875 0.390625 0.5 0.625q0.328125 0.234375 0.828125 0.234375zm3.6531525 0.78125l0 -5.09375l0.75 0l0 0.78125l0.0625 0q0.125 -0.390625 0.484375 -0.625q0.375 -0.234375 0.828125 -0.234375q0.09375 0 0.21875 0.015625q0.125 0 0.203125 0l0 0.796875q-0.046875 -0.015625 -0.1875 -0.03125q-0.140625 -0.015625 -0.296875 -0.015625q-0.375 0 -0.671875 0.15625q-0.28125 0.140625 -0.453125 0.421875q-0.15625 0.265625 -0.15625 0.609375l0 3.21875l-0.78125 0zm4.971588 0.125q-0.484375 0 -0.890625 -0.1875q-0.390625 -0.1875 -0.625 -0.53125q-0.21875 -0.359375 -0.21875 -0.84375q0 -0.4375 0.171875 -0.703125q0.171875 -0.28125 0.453125 -0.4375q0.28125 -0.15625 0.625 -0.234375q0.359375 -0.078125 0.71875 -0.125q0.46875 -0.0625 0.75 -0.09375q0.296875 -0.03125 0.421875 -0.109375q0.140625 -0.078125 0.140625 -0.265625l0 -0.03125q0 -0.484375 -0.265625 -0.75q-0.265625 -0.28125 -0.8125 -0.28125q-0.5625 0 -0.875 0.25q-0.3125 0.25 -0.453125 0.515625l-0.734375 -0.265625q0.203125 -0.453125 0.53125 -0.71875q0.328125 -0.265625 0.71875 -0.359375q0.40625 -0.109375 0.78125 -0.109375q0.25 0 0.5625 0.0625q0.328125 0.0625 0.625 0.234375q0.296875 0.171875 0.5 0.546875q0.203125 0.359375 0.203125 0.953125l0 3.359375l-0.78125 0l0 -0.6875l-0.046875 0q-0.078125 0.171875 -0.265625 0.359375q-0.1875 0.1875 -0.5 0.328125q-0.296875 0.125 -0.734375 0.125zm0.109375 -0.703125q0.46875 0 0.78125 -0.1875q0.328125 -0.1875 0.484375 -0.46875q0.171875 -0.296875 0.171875 -0.609375l0 -0.71875q-0.046875 0.0625 -0.21875 0.109375q-0.171875 0.046875 -0.390625 0.09375q-0.21875 0.03125 -0.421875 0.0625q-0.203125 0.015625 -0.328125 0.03125q-0.296875 0.046875 -0.5625 0.140625q-0.265625 0.078125 -0.421875 0.25q-0.15625 0.171875 -0.15625 0.46875q0 0.40625 0.296875 0.625q0.296875 0.203125 0.765625 0.203125zm3.6510162 0.578125l0 -5.09375l0.75 0l0 0.796875l0.0625 0q0.171875 -0.40625 0.515625 -0.625q0.359375 -0.234375 0.859375 -0.234375q0.5 0 0.828125 0.234375q0.34375 0.21875 0.53125 0.625l0.046875 0q0.203125 -0.390625 0.59375 -0.625q0.390625 -0.234375 0.9375 -0.234375q0.6875 0 1.109375 0.4375q0.4375 0.421875 0.4375 1.3125l0 3.40625l-0.78125 0l0 -3.40625q0 -0.5625 -0.3125 -0.796875q-0.296875 -0.25 -0.71875 -0.25q-0.53125 0 -0.828125 0.328125q-0.296875 0.3125 -0.296875 0.8125l0 3.3125l-0.796875 0l0 -3.484375q0 -0.4375 -0.28125 -0.703125q-0.28125 -0.265625 -0.71875 -0.265625q-0.3125 0 -0.578125 0.171875q-0.265625 0.15625 -0.421875 0.453125q-0.15625 0.28125 -0.15625 0.640625l0 3.1875l-0.78125 0zm8.109222 0l0 -5.09375l0.75 0l0 0.796875l0.0625 0q0.171875 -0.40625 0.515625 -0.625q0.359375 -0.234375 0.859375 -0.234375q0.5 0 0.828125 0.234375q0.34375 0.21875 0.53125 0.625l0.046875 0q0.203125 -0.390625 0.59375 -0.625q0.390625 -0.234375 0.9375 -0.234375q0.6875 0 1.109375 0.4375q0.4375 0.421875 0.4375 1.3125l0 3.40625l-0.78125 0l0 -3.40625q0 -0.5625 -0.3125 -0.796875q-0.296875 -0.25 -0.71875 -0.25q-0.53125 0 -0.828125 0.328125q-0.296875 0.3125 -0.296875 0.8125l0 3.3125l-0.796875 0l0 -3.484375q0 -0.4375 -0.28125 -0.703125q-0.28125 -0.265625 -0.71875 -0.265625q-0.3125 0 -0.578125 0.171875q-0.265625 0.15625 -0.421875 0.453125q-0.15625 0.28125 -0.15625 0.640625l0 3.1875l-0.78125 0zm10.234222 0.109375q-0.734375 0 -1.265625 -0.328125q-0.53125 -0.328125 -0.8125 -0.90625q-0.28125 -0.59375 -0.28125 -1.375q0 -0.78125 0.28125 -1.375q0.28125 -0.609375 0.796875 -0.9375q0.515625 -0.34375 1.203125 -0.34375q0.40625 0 0.78125 0.140625q0.390625 0.125 0.703125 0.421875q0.328125 0.296875 0.515625 0.78125q0.1875 0.484375 0.1875 1.203125l0 0.328125l-3.921875 0l0 -0.671875l3.125 0q0 -0.4375 -0.171875 -0.765625q-0.171875 -0.34375 -0.484375 -0.53125q-0.3125 -0.203125 -0.734375 -0.203125q-0.46875 0 -0.8125 0.234375q-0.328125 0.234375 -0.515625 0.609375q-0.171875 0.359375 -0.171875 0.78125l0 0.4375q0 0.578125 0.1875 0.984375q0.203125 0.390625 0.5625 0.609375q0.359375 0.203125 0.828125 0.203125q0.3125 0 0.5625 -0.078125q0.25 -0.09375 0.421875 -0.265625q0.1875 -0.1875 0.296875 -0.453125l0.75 0.21875q-0.125 0.375 -0.40625 0.671875q-0.28125 0.28125 -0.703125 0.453125q-0.40625 0.15625 -0.921875 0.15625zm3.3076477 -0.109375l0 -5.09375l0.75 0l0 0.78125l0.0625 0q0.125 -0.390625 0.484375 -0.625q0.375 -0.234375 0.828125 -0.234375q0.09375 0 0.21875 0.015625q0.125 0 0.203125 0l0 0.796875q-0.046875 -0.015625 -0.1875 -0.03125q-0.140625 -0.015625 -0.296875 -0.015625q-0.375 0 -0.671875 0.15625q-0.28125 0.140625 -0.453125 0.421875q-0.15625 0.265625 -0.15625 0.609375l0 3.21875l-0.78125 0zm7.065338 -3.953125l-0.6875 0.203125q-0.078125 -0.171875 -0.203125 -0.34375q-0.125 -0.171875 -0.34375 -0.28125q-0.21875 -0.109375 -0.5625 -0.109375q-0.46875 0 -0.78125 0.21875q-0.296875 0.21875 -0.296875 0.546875q0 0.28125 0.203125 0.453125q0.21875 0.171875 0.671875 0.28125l0.75 0.1875q0.6875 0.171875 1.015625 0.515625q0.328125 0.328125 0.328125 0.859375q0 0.4375 -0.25 0.78125q-0.25 0.34375 -0.703125 0.546875q-0.4375 0.203125 -1.03125 0.203125q-0.78125 0 -1.296875 -0.328125q-0.5 -0.34375 -0.640625 -1.0l0.75 -0.1875q0.109375 0.40625 0.40625 0.625q0.296875 0.203125 0.765625 0.203125q0.546875 0 0.875 -0.234375q0.328125 -0.234375 0.328125 -0.5625q0 -0.265625 -0.1875 -0.4375q-0.1875 -0.1875 -0.578125 -0.28125l-0.84375 -0.203125q-0.703125 -0.15625 -1.03125 -0.5q-0.3125 -0.359375 -0.3125 -0.890625q0 -0.421875 0.234375 -0.75q0.25 -0.34375 0.671875 -0.53125q0.421875 -0.1875 0.953125 -0.1875q0.75 0 1.1875 0.34375q0.4375 0.328125 0.609375 0.859375z" fill-rule="nonzero"/><path fill="#000000" fill-opacity="0.0" d="m94.8399 352.84515l0 0c0 -14.724701 11.936722 -26.661438 26.661415 -26.661438l0 0c7.071045 0 13.852478 2.80896 18.852463 7.80896c4.9999847 5.0 7.80896 11.781433 7.80896 18.852478l0 0c0 14.72467 -11.936722 26.661407 -26.661423 26.661407l0 0c-14.724693 0 -26.661415 -11.936737 -26.661415 -26.661407z" fill-rule="evenodd"/><path stroke="#d7d8df" stroke-width="1.0" stroke-linejoin="round" stroke-linecap="butt" d="m94.8399 352.84515l0 0c0 -14.724701 11.936722 -26.661438 26.661415 -26.661438l0 0c7.071045 0 13.852478 2.80896 18.852463 7.80896c4.9999847 5.0 7.80896 11.781433 7.80896 18.852478l0 0c0 14.72467 -11.936722 26.661407 -26.661423 26.661407l0 0c-14.724693 0 -26.661415 -11.936737 -26.661415 -26.661407z" fill-rule="evenodd"/><path fill="#000000" fill-opacity="0.0" d="m138.14699 350.0735l82.20471 0l0 42.015747l-82.20471 0z" fill-rule="evenodd"/><path fill="#d7d8df" d="m160.63536 361.97098l0 -0.71875l5.078125 0l0 0.71875l-2.125 0l0 6.0625l-0.828125 0l0 -6.0625l-2.125 0zm6.171463 7.96875q-0.203125 0 -0.359375 -0.03125q-0.15625 -0.03125 -0.203125 -0.0625l0.1875 -0.6875q0.296875 0.078125 0.5 0.046875q0.21875 -0.015625 0.390625 -0.1875q0.171875 -0.171875 0.3125 -0.5625l0.15625 -0.390625l-1.890625 -5.125l0.859375 0l1.40625 4.0625l0.046875 0l1.40625 -4.0625l0.84375 0l-2.15625 5.828125q-0.140625 0.40625 -0.359375 0.65625q-0.21875 0.265625 -0.5 0.390625q-0.28125 0.125 -0.640625 0.125zm4.6941376 0l0 -7.0l0.75 0l0 0.8125l0.09375 0q0.09375 -0.125 0.234375 -0.328125q0.15625 -0.21875 0.4375 -0.375q0.296875 -0.171875 0.796875 -0.171875q0.640625 0 1.125 0.328125q0.5 0.3125 0.765625 0.90625q0.28125 0.59375 0.28125 1.390625q0 0.8125 -0.28125 1.40625q-0.265625 0.578125 -0.75 0.90625q-0.484375 0.328125 -1.125 0.328125q-0.484375 0 -0.78125 -0.15625q-0.296875 -0.171875 -0.453125 -0.375q-0.15625 -0.21875 -0.25 -0.359375l-0.0625 0l0 2.6875l-0.78125 0zm0.765625 -4.453125q0 0.578125 0.171875 1.015625q0.171875 0.4375 0.484375 0.6875q0.328125 0.25 0.796875 0.25q0.5 0 0.828125 -0.25q0.328125 -0.265625 0.484375 -0.703125q0.171875 -0.453125 0.171875 -1.0q0 -0.53125 -0.171875 -0.953125q-0.15625 -0.4375 -0.484375 -0.6875q-0.328125 -0.265625 -0.828125 -0.265625q-0.46875 0 -0.796875 0.25q-0.328125 0.234375 -0.5 0.671875q-0.15625 0.421875 -0.15625 0.984375zm4.9187775 2.546875l0 -5.09375l0.78125 0l0 5.09375l-0.78125 0zm0.390625 -5.9375q-0.21875 0 -0.390625 -0.15625q-0.15625 -0.15625 -0.15625 -0.375q0 -0.21875 0.15625 -0.375q0.171875 -0.15625 0.390625 -0.15625q0.234375 0 0.390625 0.15625q0.171875 0.15625 0.171875 0.375q0 0.21875 -0.171875 0.375q-0.15625 0.15625 -0.390625 0.15625zm3.8846893 6.046875q-0.71875 0 -1.234375 -0.328125q-0.515625 -0.34375 -0.796875 -0.9375q-0.265625 -0.59375 -0.265625 -1.359375q0 -0.78125 0.28125 -1.375q0.28125 -0.59375 0.796875 -0.921875q0.515625 -0.34375 1.203125 -0.34375q0.546875 0 0.96875 0.203125q0.4375 0.203125 0.703125 0.5625q0.28125 0.34375 0.34375 0.828125l-0.78125 0q-0.09375 -0.34375 -0.40625 -0.609375q-0.296875 -0.28125 -0.8125 -0.28125q-0.453125 0 -0.796875 0.234375q-0.34375 0.234375 -0.53125 0.671875q-0.1875 0.421875 -0.1875 1.0q0 0.59375 0.1875 1.03125q0.1875 0.4375 0.515625 0.6875q0.34375 0.234375 0.8125 0.234375q0.3125 0 0.546875 -0.109375q0.25 -0.109375 0.421875 -0.296875q0.171875 -0.203125 0.25 -0.484375l0.78125 0q-0.0625 0.453125 -0.328125 0.8125q-0.25 0.359375 -0.6875 0.578125q-0.421875 0.203125 -0.984375 0.203125zm4.644882 0.015625q-0.484375 0 -0.890625 -0.1875q-0.390625 -0.1875 -0.625 -0.53125q-0.21875 -0.359375 -0.21875 -0.84375q0 -0.4375 0.171875 -0.703125q0.171875 -0.28125 0.453125 -0.4375q0.28125 -0.15625 0.625 -0.234375q0.359375 -0.078125 0.71875 -0.125q0.46875 -0.0625 0.75 -0.09375q0.296875 -0.03125 0.421875 -0.109375q0.140625 -0.078125 0.140625 -0.265625l0 -0.03125q0 -0.484375 -0.265625 -0.75q-0.265625 -0.28125 -0.8125 -0.28125q-0.5625 0 -0.875 0.25q-0.3125 0.25 -0.453125 0.515625l-0.734375 -0.265625q0.203125 -0.453125 0.53125 -0.71875q0.328125 -0.265625 0.71875 -0.359375q0.40625 -0.109375 0.78125 -0.109375q0.25 0 0.5625 0.0625q0.328125 0.0625 0.625 0.234375q0.296875 0.171875 0.5 0.546875q0.203125 0.359375 0.203125 0.953125l0 3.359375l-0.78125 0l0 -0.6875l-0.046875 0q-0.078125 0.171875 -0.265625 0.359375q-0.1875 0.1875 -0.5 0.328125q-0.296875 0.125 -0.734375 0.125zm0.109375 -0.703125q0.46875 0 0.78125 -0.1875q0.328125 -0.1875 0.484375 -0.46875q0.171875 -0.296875 0.171875 -0.609375l0 -0.71875q-0.046875 0.0625 -0.21875 0.109375q-0.171875 0.046875 -0.390625 0.09375q-0.21875 0.03125 -0.421875 0.0625q-0.203125 0.015625 -0.328125 0.03125q-0.296875 0.046875 -0.5625 0.140625q-0.265625 0.078125 -0.421875 0.25q-0.15625 0.171875 -0.15625 0.46875q0 0.40625 0.296875 0.625q0.296875 0.203125 0.765625 0.203125zm4.432266 -6.203125l0 6.78125l-0.78125 0l0 -6.78125l0.78125 0zm6.43013 0l0 6.78125l-0.828125 0l0 -5.921875l-0.046875 0l-1.65625 1.09375l0 -0.828125l1.703125 -1.125l0.828125 0z" fill-rule="nonzero"/><path fill="#d7d8df" d="m152.91754 381.13974l0 -7.0l0.75 0l0 0.8125l0.09375 0q0.09375 -0.125 0.234375 -0.328125q0.15625 -0.21875 0.4375 -0.375q0.296875 -0.171875 0.796875 -0.171875q0.640625 0 1.125 0.328125q0.5 0.3125 0.765625 0.90625q0.28125 0.59375 0.28125 1.390625q0 0.8125 -0.28125 1.40625q-0.265625 0.578125 -0.75 0.90625q-0.484375 0.328125 -1.125 0.328125q-0.484375 0 -0.78125 -0.15625q-0.296875 -0.171875 -0.453125 -0.375q-0.15625 -0.21875 -0.25 -0.359375l-0.0625 0l0 2.6875l-0.78125 0zm0.765625 -4.453125q0 0.578125 0.171875 1.015625q0.171875 0.4375 0.484375 0.6875q0.328125 0.25 0.796875 0.25q0.5 0 0.828125 -0.25q0.328125 -0.265625 0.484375 -0.703125q0.171875 -0.453125 0.171875 -1.0q0 -0.53125 -0.171875 -0.953125q-0.15625 -0.4375 -0.484375 -0.6875q-0.328125 -0.265625 -0.828125 -0.265625q-0.46875 0 -0.796875 0.25q-0.328125 0.234375 -0.5 0.671875q-0.15625 0.421875 -0.15625 0.984375zm4.9187775 2.546875l0 -5.09375l0.75 0l0 0.78125l0.0625 0q0.125 -0.390625 0.484375 -0.625q0.375 -0.234375 0.828125 -0.234375q0.09375 0 0.21875 0.015625q0.125 0 0.203125 0l0 0.796875q-0.046875 -0.015625 -0.1875 -0.03125q-0.140625 -0.015625 -0.296875 -0.015625q-0.375 0 -0.671875 0.15625q-0.28125 0.140625 -0.453125 0.421875q-0.15625 0.265625 -0.15625 0.609375l0 3.21875l-0.78125 0zm5.375 0.109375q-0.6875 0 -1.203125 -0.328125q-0.515625 -0.328125 -0.8125 -0.921875q-0.28125 -0.59375 -0.28125 -1.375q0 -0.796875 0.28125 -1.390625q0.296875 -0.59375 0.8125 -0.921875q0.515625 -0.328125 1.203125 -0.328125q0.6875 0 1.203125 0.328125q0.53125 0.328125 0.8125 0.921875q0.296875 0.59375 0.296875 1.390625q0 0.78125 -0.296875 1.375q-0.28125 0.59375 -0.8125 0.921875q-0.515625 0.328125 -1.203125 0.328125zm0 -0.703125q0.53125 0 0.859375 -0.265625q0.34375 -0.28125 0.5 -0.703125q0.171875 -0.4375 0.171875 -0.953125q0 -0.515625 -0.171875 -0.953125q-0.15625 -0.4375 -0.5 -0.703125q-0.328125 -0.28125 -0.859375 -0.28125q-0.515625 0 -0.859375 0.28125q-0.34375 0.265625 -0.5 0.703125q-0.15625 0.4375 -0.15625 0.953125q0 0.515625 0.15625 0.953125q0.15625 0.421875 0.5 0.703125q0.34375 0.265625 0.859375 0.265625zm5.54953 2.609375q-0.5625 0 -0.96875 -0.15625q-0.40625 -0.140625 -0.6875 -0.375q-0.265625 -0.21875 -0.421875 -0.484375l0.625 -0.4375q0.109375 0.140625 0.265625 0.3125q0.171875 0.1875 0.453125 0.3125q0.28125 0.140625 0.734375 0.140625q0.625 0 1.015625 -0.296875q0.40625 -0.296875 0.40625 -0.9375l0 -1.03125l-0.0625 0q-0.09375 0.140625 -0.25 0.34375q-0.15625 0.203125 -0.453125 0.359375q-0.28125 0.15625 -0.78125 0.15625q-0.625 0 -1.109375 -0.28125q-0.484375 -0.296875 -0.765625 -0.859375q-0.28125 -0.5625 -0.28125 -1.359375q0 -0.78125 0.265625 -1.359375q0.28125 -0.578125 0.765625 -0.890625q0.484375 -0.328125 1.140625 -0.328125q0.484375 0 0.78125 0.171875q0.296875 0.15625 0.453125 0.375q0.15625 0.203125 0.25 0.328125l0.078125 0l0 -0.8125l0.75 0l0 5.234375q0 0.65625 -0.296875 1.0625q-0.296875 0.421875 -0.796875 0.609375q-0.5 0.203125 -1.109375 0.203125zm-0.015625 -2.796875q0.46875 0 0.78125 -0.21875q0.328125 -0.21875 0.5 -0.609375q0.171875 -0.40625 0.171875 -0.96875q0 -0.5625 -0.171875 -0.96875q-0.15625 -0.421875 -0.484375 -0.65625q-0.328125 -0.25 -0.796875 -0.25q-0.5 0 -0.828125 0.25q-0.328125 0.25 -0.5 0.6875q-0.15625 0.421875 -0.15625 0.9375q0 0.53125 0.15625 0.9375q0.171875 0.390625 0.5 0.625q0.328125 0.234375 0.828125 0.234375zm3.6531525 0.78125l0 -5.09375l0.75 0l0 0.78125l0.0625 0q0.125 -0.390625 0.484375 -0.625q0.375 -0.234375 0.828125 -0.234375q0.09375 0 0.21875 0.015625q0.125 0 0.203125 0l0 0.796875q-0.046875 -0.015625 -0.1875 -0.03125q-0.140625 -0.015625 -0.296875 -0.015625q-0.375 0 -0.671875 0.15625q-0.28125 0.140625 -0.453125 0.421875q-0.15625 0.265625 -0.15625 0.609375l0 3.21875l-0.78125 0zm4.971588 0.125q-0.484375 0 -0.890625 -0.1875q-0.390625 -0.1875 -0.625 -0.53125q-0.21875 -0.359375 -0.21875 -0.84375q0 -0.4375 0.171875 -0.703125q0.171875 -0.28125 0.453125 -0.4375q0.28125 -0.15625 0.625 -0.234375q0.359375 -0.078125 0.71875 -0.125q0.46875 -0.0625 0.75 -0.09375q0.296875 -0.03125 0.421875 -0.109375q0.140625 -0.078125 0.140625 -0.265625l0 -0.03125q0 -0.484375 -0.265625 -0.75q-0.265625 -0.28125 -0.8125 -0.28125q-0.5625 0 -0.875 0.25q-0.3125 0.25 -0.453125 0.515625l-0.734375 -0.265625q0.203125 -0.453125 0.53125 -0.71875q0.328125 -0.265625 0.71875 -0.359375q0.40625 -0.109375 0.78125 -0.109375q0.25 0 0.5625 0.0625q0.328125 0.0625 0.625 0.234375q0.296875 0.171875 0.5 0.546875q0.203125 0.359375 0.203125 0.953125l0 3.359375l-0.78125 0l0 -0.6875l-0.046875 0q-0.078125 0.171875 -0.265625 0.359375q-0.1875 0.1875 -0.5 0.328125q-0.296875 0.125 -0.734375 0.125zm0.109375 -0.703125q0.46875 0 0.78125 -0.1875q0.328125 -0.1875 0.484375 -0.46875q0.171875 -0.296875 0.171875 -0.609375l0 -0.71875q-0.046875 0.0625 -0.21875 0.109375q-0.171875 0.046875 -0.390625 0.09375q-0.21875 0.03125 -0.421875 0.0625q-0.203125 0.015625 -0.328125 0.03125q-0.296875 0.046875 -0.5625 0.140625q-0.265625 0.078125 -0.421875 0.25q-0.15625 0.171875 -0.15625 0.46875q0 0.40625 0.296875 0.625q0.296875 0.203125 0.765625 0.203125zm3.6510162 0.578125l0 -5.09375l0.75 0l0 0.796875l0.0625 0q0.171875 -0.40625 0.515625 -0.625q0.359375 -0.234375 0.859375 -0.234375q0.5 0 0.828125 0.234375q0.34375 0.21875 0.53125 0.625l0.046875 0q0.203125 -0.390625 0.59375 -0.625q0.390625 -0.234375 0.9375 -0.234375q0.6875 0 1.109375 0.4375q0.4375 0.421875 0.4375 1.3125l0 3.40625l-0.78125 0l0 -3.40625q0 -0.5625 -0.3125 -0.796875q-0.296875 -0.25 -0.71875 -0.25q-0.53125 0 -0.828125 0.328125q-0.296875 0.3125 -0.296875 0.8125l0 3.3125l-0.796875 0l0 -3.484375q0 -0.4375 -0.28125 -0.703125q-0.28125 -0.265625 -0.71875 -0.265625q-0.3125 0 -0.578125 0.171875q-0.265625 0.15625 -0.421875 0.453125q-0.15625 0.28125 -0.15625 0.640625l0 3.1875l-0.78125 0zm8.109222 0l0 -5.09375l0.75 0l0 0.796875l0.0625 0q0.171875 -0.40625 0.515625 -0.625q0.359375 -0.234375 0.859375 -0.234375q0.5 0 0.828125 0.234375q0.34375 0.21875 0.53125 0.625l0.046875 0q0.203125 -0.390625 0.59375 -0.625q0.390625 -0.234375 0.9375 -0.234375q0.6875 0 1.109375 0.4375q0.4375 0.421875 0.4375 1.3125l0 3.40625l-0.78125 0l0 -3.40625q0 -0.5625 -0.3125 -0.796875q-0.296875 -0.25 -0.71875 -0.25q-0.53125 0 -0.828125 0.328125q-0.296875 0.3125 -0.296875 0.8125l0 3.3125l-0.796875 0l0 -3.484375q0 -0.4375 -0.28125 -0.703125q-0.28125 -0.265625 -0.71875 -0.265625q-0.3125 0 -0.578125 0.171875q-0.265625 0.15625 -0.421875 0.453125q-0.15625 0.28125 -0.15625 0.640625l0 3.1875l-0.78125 0zm10.234222 0.109375q-0.734375 0 -1.265625 -0.328125q-0.53125 -0.328125 -0.8125 -0.90625q-0.28125 -0.59375 -0.28125 -1.375q0 -0.78125 0.28125 -1.375q0.28125 -0.609375 0.796875 -0.9375q0.515625 -0.34375 1.203125 -0.34375q0.40625 0 0.78125 0.140625q0.390625 0.125 0.703125 0.421875q0.328125 0.296875 0.515625 0.78125q0.1875 0.484375 0.1875 1.203125l0 0.328125l-3.921875 0l0 -0.671875l3.125 0q0 -0.4375 -0.171875 -0.765625q-0.171875 -0.34375 -0.484375 -0.53125q-0.3125 -0.203125 -0.734375 -0.203125q-0.46875 0 -0.8125 0.234375q-0.328125 0.234375 -0.515625 0.609375q-0.171875 0.359375 -0.171875 0.78125l0 0.4375q0 0.578125 0.1875 0.984375q0.203125 0.390625 0.5625 0.609375q0.359375 0.203125 0.828125 0.203125q0.3125 0 0.5625 -0.078125q0.25 -0.09375 0.421875 -0.265625q0.1875 -0.1875 0.296875 -0.453125l0.75 0.21875q-0.125 0.375 -0.40625 0.671875q-0.28125 0.28125 -0.703125 0.453125q-0.40625 0.15625 -0.921875 0.15625zm3.3076477 -0.109375l0 -5.09375l0.75 0l0 0.78125l0.0625 0q0.125 -0.390625 0.484375 -0.625q0.375 -0.234375 0.828125 -0.234375q0.09375 0 0.21875 0.015625q0.125 0 0.203125 0l0 0.796875q-0.046875 -0.015625 -0.1875 -0.03125q-0.140625 -0.015625 -0.296875 -0.015625q-0.375 0 -0.671875 0.15625q-0.28125 0.140625 -0.453125 0.421875q-0.15625 0.265625 -0.15625 0.609375l0 3.21875l-0.78125 0z" fill-rule="nonzero"/><path fill="#000000" fill-opacity="0.0" d="m317.61942 282.98425l0 0c0 -14.724701 11.936737 -26.661407 26.661438 -26.661407l0 0c7.071045 0 13.852478 2.80896 18.852448 7.8089294c5.0 5.0 7.80896 11.781433 7.80896 18.852478l0 0c0 14.724701 -11.936737 26.661407 -26.661407 26.661407l0 0c-14.724701 0 -26.661438 -11.936707 -26.661438 -26.661407z" fill-rule="evenodd"/><path stroke="#d7d8df" stroke-width="1.0" stroke-linejoin="round" stroke-linecap="butt" d="m317.61942 282.98425l0 0c0 -14.724701 11.936737 -26.661407 26.661438 -26.661407l0 0c7.071045 0 13.852478 2.80896 18.852448 7.8089294c5.0 5.0 7.80896 11.781433 7.80896 18.852478l0 0c0 14.724701 -11.936737 26.661407 -26.661407 26.661407l0 0c-14.724701 0 -26.661438 -11.936707 -26.661438 -26.661407z" fill-rule="evenodd"/><path fill="#000000" fill-opacity="0.0" d="m357.53543 281.64304l82.20471 0l0 42.015747l-82.20471 0z" fill-rule="evenodd"/><path fill="#d7d8df" d="m374.59116 293.54056l0 -0.71875l5.078125 0l0 0.71875l-2.125 0l0 6.0625l-0.828125 0l0 -6.0625l-2.125 0zm6.1714783 7.96875q-0.203125 0 -0.359375 -0.03125q-0.15625 -0.03125 -0.203125 -0.0625l0.1875 -0.6875q0.296875 0.078125 0.5 0.046875q0.21875 -0.015625 0.390625 -0.1875q0.171875 -0.171875 0.3125 -0.5625l0.15625 -0.390625l-1.890625 -5.125l0.859375 0l1.40625 4.0625l0.046875 0l1.40625 -4.0625l0.84375 0l-2.15625 5.828125q-0.140625 0.40625 -0.359375 0.65625q-0.21875 0.265625 -0.5 0.390625q-0.28125 0.125 -0.640625 0.125zm4.6941223 0l0 -7.0l0.75 0l0 0.8125l0.09375 0q0.09375 -0.125 0.234375 -0.328125q0.15625 -0.21875 0.4375 -0.375q0.296875 -0.171875 0.796875 -0.171875q0.640625 0 1.125 0.328125q0.5 0.3125 0.765625 0.90625q0.28125 0.59375 0.28125 1.390625q0 0.8125 -0.28125 1.40625q-0.265625 0.578125 -0.75 0.90625q-0.484375 0.328125 -1.125 0.328125q-0.484375 0 -0.78125 -0.15625q-0.296875 -0.171875 -0.453125 -0.375q-0.15625 -0.21875 -0.25 -0.359375l-0.0625 0l0 2.6875l-0.78125 0zm0.765625 -4.453125q0 0.578125 0.171875 1.015625q0.171875 0.4375 0.484375 0.6875q0.328125 0.25 0.796875 0.25q0.5 0 0.828125 -0.25q0.328125 -0.265625 0.484375 -0.703125q0.171875 -0.453125 0.171875 -1.0q0 -0.53125 -0.171875 -0.953125q-0.15625 -0.4375 -0.484375 -0.6875q-0.328125 -0.265625 -0.828125 -0.265625q-0.46875 0 -0.796875 0.25q-0.328125 0.234375 -0.5 0.671875q-0.15625 0.421875 -0.15625 0.984375zm4.9187927 2.546875l0 -5.09375l0.78125 0l0 5.09375l-0.78125 0zm0.390625 -5.9375q-0.21875 0 -0.390625 -0.15625q-0.15625 -0.15625 -0.15625 -0.375q0 -0.21875 0.15625 -0.375q0.171875 -0.15625 0.390625 -0.15625q0.234375 0 0.390625 0.15625q0.171875 0.15625 0.171875 0.375q0 0.21875 -0.171875 0.375q-0.15625 0.15625 -0.390625 0.15625zm3.884674 6.046875q-0.71875 0 -1.234375 -0.328125q-0.515625 -0.34375 -0.796875 -0.9375q-0.265625 -0.59375 -0.265625 -1.359375q0 -0.78125 0.28125 -1.375q0.28125 -0.59375 0.796875 -0.921875q0.515625 -0.34375 1.203125 -0.34375q0.546875 0 0.96875 0.203125q0.4375 0.203125 0.703125 0.5625q0.28125 0.34375 0.34375 0.828125l-0.78125 0q-0.09375 -0.34375 -0.40625 -0.609375q-0.296875 -0.28125 -0.8125 -0.28125q-0.453125 0 -0.796875 0.234375q-0.34375 0.234375 -0.53125 0.671875q-0.1875 0.421875 -0.1875 1.0q0 0.59375 0.1875 1.03125q0.1875 0.4375 0.515625 0.6875q0.34375 0.234375 0.8125 0.234375q0.3125 0 0.546875 -0.109375q0.25 -0.109375 0.421875 -0.296875q0.171875 -0.203125 0.25 -0.484375l0.78125 0q-0.0625 0.453125 -0.328125 0.8125q-0.25 0.359375 -0.6875 0.578125q-0.421875 0.203125 -0.984375 0.203125zm4.6448975 0.015625q-0.484375 0 -0.890625 -0.1875q-0.390625 -0.1875 -0.625 -0.53125q-0.21875 -0.359375 -0.21875 -0.84375q0 -0.4375 0.171875 -0.703125q0.171875 -0.28125 0.453125 -0.4375q0.28125 -0.15625 0.625 -0.234375q0.359375 -0.078125 0.71875 -0.125q0.46875 -0.0625 0.75 -0.09375q0.296875 -0.03125 0.421875 -0.109375q0.140625 -0.078125 0.140625 -0.265625l0 -0.03125q0 -0.484375 -0.265625 -0.75q-0.265625 -0.28125 -0.8125 -0.28125q-0.5625 0 -0.875 0.25q-0.3125 0.25 -0.453125 0.515625l-0.734375 -0.265625q0.203125 -0.453125 0.53125 -0.71875q0.328125 -0.265625 0.71875 -0.359375q0.40625 -0.109375 0.78125 -0.109375q0.25 0 0.5625 0.0625q0.328125 0.0625 0.625 0.234375q0.296875 0.171875 0.5 0.546875q0.203125 0.359375 0.203125 0.953125l0 3.359375l-0.78125 0l0 -0.6875l-0.046875 0q-0.078125 0.171875 -0.265625 0.359375q-0.1875 0.1875 -0.5 0.328125q-0.296875 0.125 -0.734375 0.125zm0.109375 -0.703125q0.46875 0 0.78125 -0.1875q0.328125 -0.1875 0.484375 -0.46875q0.171875 -0.296875 0.171875 -0.609375l0 -0.71875q-0.046875 0.0625 -0.21875 0.109375q-0.171875 0.046875 -0.390625 0.09375q-0.21875 0.03125 -0.421875 0.0625q-0.203125 0.015625 -0.328125 0.03125q-0.296875 0.046875 -0.5625 0.140625q-0.265625 0.078125 -0.421875 0.25q-0.15625 0.171875 -0.15625 0.46875q0 0.40625 0.296875 0.625q0.296875 0.203125 0.765625 0.203125zm4.432251 -6.203125l0 6.78125l-0.78125 0l0 -6.78125l0.78125 0zm6.4301453 0l0 6.78125l-0.828125 0l0 -5.921875l-0.046875 0l-1.65625 1.09375l0 -0.828125l1.703125 -1.125l0.828125 0zm4.16098 6.875q-0.75 0 -1.28125 -0.40625q-0.53125 -0.40625 -0.8125 -1.1875q-0.265625 -0.78125 -0.265625 -1.890625q0 -1.09375 0.265625 -1.875q0.28125 -0.78125 0.8125 -1.1875q0.53125 -0.421875 1.28125 -0.421875q0.734375 0 1.265625 0.421875q0.53125 0.40625 0.8125 1.1875q0.28125 0.78125 0.28125 1.875q0 1.109375 -0.28125 1.890625q-0.28125 0.78125 -0.8125 1.1875q-0.53125 0.40625 -1.265625 0.40625zm0 -0.734375q0.734375 0 1.140625 -0.703125q0.421875 -0.71875 0.421875 -2.046875q0 -0.875 -0.1875 -1.5q-0.1875 -0.625 -0.546875 -0.9375q-0.34375 -0.328125 -0.828125 -0.328125q-0.75 0 -1.171875 0.71875q-0.40625 0.71875 -0.40625 2.046875q0 0.875 0.1875 1.5q0.1875 0.609375 0.53125 0.9375q0.359375 0.3125 0.859375 0.3125zm4.2051697 -4.453125l1.21875 2.078125l1.21875 -2.078125l0.90625 0l-1.640625 2.546875l1.640625 2.546875l-0.90625 0l-1.21875 -1.96875l-1.21875 1.96875l-0.90625 0l1.625 -2.546875l-1.625 -2.546875l0.90625 0z" fill-rule="nonzero"/><path fill="#d7d8df" d="m372.306 312.7093l0 -7.0l0.75 0l0 0.8125l0.09375 0q0.09375 -0.125 0.234375 -0.328125q0.15625 -0.21875 0.4375 -0.375q0.296875 -0.171875 0.796875 -0.171875q0.640625 0 1.125 0.328125q0.5 0.3125 0.765625 0.90625q0.28125 0.59375 0.28125 1.390625q0 0.8125 -0.28125 1.40625q-0.265625 0.578125 -0.75 0.90625q-0.484375 0.328125 -1.125 0.328125q-0.484375 0 -0.78125 -0.15625q-0.296875 -0.171875 -0.453125 -0.375q-0.15625 -0.21875 -0.25 -0.359375l-0.0625 0l0 2.6875l-0.78125 0zm0.765625 -4.453125q0 0.578125 0.171875 1.015625q0.171875 0.4375 0.484375 0.6875q0.328125 0.25 0.796875 0.25q0.5 0 0.828125 -0.25q0.328125 -0.265625 0.484375 -0.703125q0.171875 -0.453125 0.171875 -1.0q0 -0.53125 -0.171875 -0.953125q-0.15625 -0.4375 -0.484375 -0.6875q-0.328125 -0.265625 -0.828125 -0.265625q-0.46875 0 -0.796875 0.25q-0.328125 0.234375 -0.5 0.671875q-0.15625 0.421875 -0.15625 0.984375zm4.918762 2.546875l0 -5.09375l0.75 0l0 0.78125l0.0625 0q0.125 -0.390625 0.484375 -0.625q0.375 -0.234375 0.828125 -0.234375q0.09375 0 0.21875 0.015625q0.125 0 0.203125 0l0 0.796875q-0.046875 -0.015625 -0.1875 -0.03125q-0.140625 -0.015625 -0.296875 -0.015625q-0.375 0 -0.671875 0.15625q-0.28125 0.140625 -0.453125 0.421875q-0.15625 0.265625 -0.15625 0.609375l0 3.21875l-0.78125 0zm5.375 0.109375q-0.6875 0 -1.203125 -0.328125q-0.515625 -0.328125 -0.8125 -0.921875q-0.28125 -0.59375 -0.28125 -1.375q0 -0.796875 0.28125 -1.390625q0.296875 -0.59375 0.8125 -0.921875q0.515625 -0.328125 1.203125 -0.328125q0.6875 0 1.203125 0.328125q0.53125 0.328125 0.8125 0.921875q0.296875 0.59375 0.296875 1.390625q0 0.78125 -0.296875 1.375q-0.28125 0.59375 -0.8125 0.921875q-0.515625 0.328125 -1.203125 0.328125zm0 -0.703125q0.53125 0 0.859375 -0.265625q0.34375 -0.28125 0.5 -0.703125q0.171875 -0.4375 0.171875 -0.953125q0 -0.515625 -0.171875 -0.953125q-0.15625 -0.4375 -0.5 -0.703125q-0.328125 -0.28125 -0.859375 -0.28125q-0.515625 0 -0.859375 0.28125q-0.34375 0.265625 -0.5 0.703125q-0.15625 0.4375 -0.15625 0.953125q0 0.515625 0.15625 0.953125q0.15625 0.421875 0.5 0.703125q0.34375 0.265625 0.859375 0.265625zm5.54953 2.609375q-0.5625 0 -0.96875 -0.15625q-0.40625 -0.140625 -0.6875 -0.375q-0.265625 -0.21875 -0.421875 -0.484375l0.625 -0.4375q0.109375 0.140625 0.265625 0.3125q0.171875 0.1875 0.453125 0.3125q0.28125 0.140625 0.734375 0.140625q0.625 0 1.015625 -0.296875q0.40625 -0.296875 0.40625 -0.9375l0 -1.03125l-0.0625 0q-0.09375 0.140625 -0.25 0.34375q-0.15625 0.203125 -0.453125 0.359375q-0.28125 0.15625 -0.78125 0.15625q-0.625 0 -1.109375 -0.28125q-0.484375 -0.296875 -0.765625 -0.859375q-0.28125 -0.5625 -0.28125 -1.359375q0 -0.78125 0.265625 -1.359375q0.28125 -0.578125 0.765625 -0.890625q0.484375 -0.328125 1.140625 -0.328125q0.484375 0 0.78125 0.171875q0.296875 0.15625 0.453125 0.375q0.15625 0.203125 0.25 0.328125l0.078125 0l0 -0.8125l0.75 0l0 5.234375q0 0.65625 -0.296875 1.0625q-0.296875 0.421875 -0.796875 0.609375q-0.5 0.203125 -1.109375 0.203125zm-0.015625 -2.796875q0.46875 0 0.78125 -0.21875q0.328125 -0.21875 0.5 -0.609375q0.171875 -0.40625 0.171875 -0.96875q0 -0.5625 -0.171875 -0.96875q-0.15625 -0.421875 -0.484375 -0.65625q-0.328125 -0.25 -0.796875 -0.25q-0.5 0 -0.828125 0.25q-0.328125 0.25 -0.5 0.6875q-0.15625 0.421875 -0.15625 0.9375q0 0.53125 0.15625 0.9375q0.171875 0.390625 0.5 0.625q0.328125 0.234375 0.828125 0.234375zm3.6531677 0.78125l0 -5.09375l0.75 0l0 0.78125l0.0625 0q0.125 -0.390625 0.484375 -0.625q0.375 -0.234375 0.828125 -0.234375q0.09375 0 0.21875 0.015625q0.125 0 0.203125 0l0 0.796875q-0.046875 -0.015625 -0.1875 -0.03125q-0.140625 -0.015625 -0.296875 -0.015625q-0.375 0 -0.671875 0.15625q-0.28125 0.140625 -0.453125 0.421875q-0.15625 0.265625 -0.15625 0.609375l0 3.21875l-0.78125 0zm4.971588 0.125q-0.484375 0 -0.890625 -0.1875q-0.390625 -0.1875 -0.625 -0.53125q-0.21875 -0.359375 -0.21875 -0.84375q0 -0.4375 0.171875 -0.703125q0.171875 -0.28125 0.453125 -0.4375q0.28125 -0.15625 0.625 -0.234375q0.359375 -0.078125 0.71875 -0.125q0.46875 -0.0625 0.75 -0.09375q0.296875 -0.03125 0.421875 -0.109375q0.140625 -0.078125 0.140625 -0.265625l0 -0.03125q0 -0.484375 -0.265625 -0.75q-0.265625 -0.28125 -0.8125 -0.28125q-0.5625 0 -0.875 0.25q-0.3125 0.25 -0.453125 0.515625l-0.734375 -0.265625q0.203125 -0.453125 0.53125 -0.71875q0.328125 -0.265625 0.71875 -0.359375q0.40625 -0.109375 0.78125 -0.109375q0.25 0 0.5625 0.0625q0.328125 0.0625 0.625 0.234375q0.296875 0.171875 0.5 0.546875q0.203125 0.359375 0.203125 0.953125l0 3.359375l-0.78125 0l0 -0.6875l-0.046875 0q-0.078125 0.171875 -0.265625 0.359375q-0.1875 0.1875 -0.5 0.328125q-0.296875 0.125 -0.734375 0.125zm0.109375 -0.703125q0.46875 0 0.78125 -0.1875q0.328125 -0.1875 0.484375 -0.46875q0.171875 -0.296875 0.171875 -0.609375l0 -0.71875q-0.046875 0.0625 -0.21875 0.109375q-0.171875 0.046875 -0.390625 0.09375q-0.21875 0.03125 -0.421875 0.0625q-0.203125 0.015625 -0.328125 0.03125q-0.296875 0.046875 -0.5625 0.140625q-0.265625 0.078125 -0.421875 0.25q-0.15625 0.171875 -0.15625 0.46875q0 0.40625 0.296875 0.625q0.296875 0.203125 0.765625 0.203125zm3.651001 0.578125l0 -5.09375l0.75 0l0 0.796875l0.0625 0q0.171875 -0.40625 0.515625 -0.625q0.359375 -0.234375 0.859375 -0.234375q0.5 0 0.828125 0.234375q0.34375 0.21875 0.53125 0.625l0.046875 0q0.203125 -0.390625 0.59375 -0.625q0.390625 -0.234375 0.9375 -0.234375q0.6875 0 1.109375 0.4375q0.4375 0.421875 0.4375 1.3125l0 3.40625l-0.78125 0l0 -3.40625q0 -0.5625 -0.3125 -0.796875q-0.296875 -0.25 -0.71875 -0.25q-0.53125 0 -0.828125 0.328125q-0.296875 0.3125 -0.296875 0.8125l0 3.3125l-0.796875 0l0 -3.484375q0 -0.4375 -0.28125 -0.703125q-0.28125 -0.265625 -0.71875 -0.265625q-0.3125 0 -0.578125 0.171875q-0.265625 0.15625 -0.421875 0.453125q-0.15625 0.28125 -0.15625 0.640625l0 3.1875l-0.78125 0zm8.109222 0l0 -5.09375l0.75 0l0 0.796875l0.0625 0q0.171875 -0.40625 0.515625 -0.625q0.359375 -0.234375 0.859375 -0.234375q0.5 0 0.828125 0.234375q0.34375 0.21875 0.53125 0.625l0.046875 0q0.203125 -0.390625 0.59375 -0.625q0.390625 -0.234375 0.9375 -0.234375q0.6875 0 1.109375 0.4375q0.4375 0.421875 0.4375 1.3125l0 3.40625l-0.78125 0l0 -3.40625q0 -0.5625 -0.3125 -0.796875q-0.296875 -0.25 -0.71875 -0.25q-0.53125 0 -0.828125 0.328125q-0.296875 0.3125 -0.296875 0.8125l0 3.3125l-0.796875 0l0 -3.484375q0 -0.4375 -0.28125 -0.703125q-0.28125 -0.265625 -0.71875 -0.265625q-0.3125 0 -0.578125 0.171875q-0.265625 0.15625 -0.421875 0.453125q-0.15625 0.28125 -0.15625 0.640625l0 3.1875l-0.78125 0zm10.234222 0.109375q-0.734375 0 -1.265625 -0.328125q-0.53125 -0.328125 -0.8125 -0.90625q-0.28125 -0.59375 -0.28125 -1.375q0 -0.78125 0.28125 -1.375q0.28125 -0.609375 0.796875 -0.9375q0.515625 -0.34375 1.203125 -0.34375q0.40625 0 0.78125 0.140625q0.390625 0.125 0.703125 0.421875q0.328125 0.296875 0.515625 0.78125q0.1875 0.484375 0.1875 1.203125l0 0.328125l-3.921875 0l0 -0.671875l3.125 0q0 -0.4375 -0.171875 -0.765625q-0.171875 -0.34375 -0.484375 -0.53125q-0.3125 -0.203125 -0.734375 -0.203125q-0.46875 0 -0.8125 0.234375q-0.328125 0.234375 -0.515625 0.609375q-0.171875 0.359375 -0.171875 0.78125l0 0.4375q0 0.578125 0.1875 0.984375q0.203125 0.390625 0.5625 0.609375q0.359375 0.203125 0.828125 0.203125q0.3125 0 0.5625 -0.078125q0.25 -0.09375 0.421875 -0.265625q0.1875 -0.1875 0.296875 -0.453125l0.75 0.21875q-0.125 0.375 -0.40625 0.671875q-0.28125 0.28125 -0.703125 0.453125q-0.40625 0.15625 -0.921875 0.15625zm3.3076477 -0.109375l0 -5.09375l0.75 0l0 0.78125l0.0625 0q0.125 -0.390625 0.484375 -0.625q0.375 -0.234375 0.828125 -0.234375q0.09375 0 0.21875 0.015625q0.125 0 0.203125 0l0 0.796875q-0.046875 -0.015625 -0.1875 -0.03125q-0.140625 -0.015625 -0.296875 -0.015625q-0.375 0 -0.671875 0.15625q-0.28125 0.140625 -0.453125 0.421875q-0.15625 0.265625 -0.15625 0.609375l0 3.21875l-0.78125 0z" fill-rule="nonzero"/><path fill="#000000" fill-opacity="0.0" d="m56.90814 36.913387l436.18896 0l0 42.015743l-436.18896 0z" fill-rule="evenodd"/><path fill="#000000" fill-opacity="0.0" d="m110.03674 337.4908l22.929138 0l0 30.708649l-22.929138 0z" fill-rule="evenodd"/><path fill="#d7d8df" d="m121.73987 356.29456l0 -8.46875l0.546875 0l0 8.46875l-0.546875 0zm1.828125 -5.9375q-0.0625 -0.5 -0.484375 -0.765625q-0.421875 -0.28125 -1.03125 -0.28125q-0.453125 0 -0.796875 0.140625q-0.328125 0.140625 -0.515625 0.40625q-0.1875 0.25 -0.1875 0.578125q0 0.265625 0.125 0.46875q0.125 0.1875 0.328125 0.3125q0.21875 0.125 0.4375 0.21875q0.234375 0.078125 0.421875 0.125l0.6875 0.1875q0.265625 0.0625 0.578125 0.1875q0.328125 0.125 0.625 0.34375q0.3125 0.203125 0.5 0.53125q0.203125 0.328125 0.203125 0.796875q0 0.546875 -0.296875 1.0q-0.28125 0.4375 -0.828125 0.703125q-0.546875 0.265625 -1.328125 0.265625q-0.734375 0 -1.265625 -0.234375q-0.53125 -0.234375 -0.84375 -0.65625q-0.296875 -0.421875 -0.328125 -0.984375l0.84375 0q0.03125 0.390625 0.25 0.640625q0.234375 0.25 0.578125 0.375q0.359375 0.109375 0.765625 0.109375q0.46875 0 0.84375 -0.15625q0.375 -0.15625 0.59375 -0.421875q0.21875 -0.28125 0.21875 -0.65625q0 -0.328125 -0.1875 -0.53125q-0.1875 -0.21875 -0.5 -0.34375q-0.3125 -0.140625 -0.671875 -0.25l-0.828125 -0.234375q-0.796875 -0.234375 -1.265625 -0.65625q-0.453125 -0.421875 -0.453125 -1.109375q0 -0.5625 0.296875 -0.984375q0.3125 -0.4375 0.84375 -0.671875q0.53125 -0.234375 1.171875 -0.234375q0.65625 0 1.15625 0.234375q0.515625 0.234375 0.8125 0.640625q0.3125 0.390625 0.328125 0.90625l-0.796875 0z" fill-rule="nonzero"/><path fill="#000000" fill-opacity="0.0" d="m313.85565 261.97638l60.850372 0l0 42.015747l-60.850372 0z" fill-rule="evenodd"/><path fill="#d7d8df" d="m332.11047 280.78012l0 -8.46875l0.546875 0l0 8.46875l-0.546875 0zm1.828125 -5.9375q-0.0625 -0.5 -0.484375 -0.765625q-0.421875 -0.28125 -1.03125 -0.28125q-0.453125 0 -0.796875 0.140625q-0.328125 0.140625 -0.515625 0.40625q-0.1875 0.25 -0.1875 0.578125q0 0.265625 0.125 0.46875q0.125 0.1875 0.328125 0.3125q0.21875 0.125 0.4375 0.21875q0.234375 0.078125 0.421875 0.125l0.6875 0.1875q0.265625 0.0625 0.578125 0.1875q0.328125 0.125 0.625 0.34375q0.3125 0.203125 0.5 0.53125q0.203125 0.328125 0.203125 0.796875q0 0.546875 -0.296875 1.0q-0.28125 0.4375 -0.828125 0.703125q-0.546875 0.265625 -1.328125 0.265625q-0.734375 0 -1.265625 -0.234375q-0.53125 -0.234375 -0.84375 -0.65625q-0.296875 -0.421875 -0.328125 -0.984375l0.84375 0q0.03125 0.390625 0.25 0.640625q0.234375 0.25 0.578125 0.375q0.359375 0.109375 0.765625 0.109375q0.46875 0 0.84375 -0.15625q0.375 -0.15625 0.59375 -0.421875q0.21875 -0.28125 0.21875 -0.65625q0 -0.328125 -0.1875 -0.53125q-0.1875 -0.21875 -0.5 -0.34375q-0.3125 -0.140625 -0.671875 -0.25l-0.828125 -0.234375q-0.796875 -0.234375 -1.265625 -0.65625q-0.453125 -0.421875 -0.453125 -1.109375q0 -0.5625 0.296875 -0.984375q0.3125 -0.4375 0.84375 -0.671875q0.53125 -0.234375 1.171875 -0.234375q0.65625 0 1.15625 0.234375q0.515625 0.234375 0.8125 0.640625q0.3125 0.390625 0.328125 0.90625l-0.796875 0zm4.121277 5.9375l0 -8.46875l0.546875 0l0 8.46875l-0.546875 0zm1.828125 -5.9375q-0.0625 -0.5 -0.484375 -0.765625q-0.421875 -0.28125 -1.03125 -0.28125q-0.453125 0 -0.796875 0.140625q-0.328125 0.140625 -0.515625 0.40625q-0.1875 0.25 -0.1875 0.578125q0 0.265625 0.125 0.46875q0.125 0.1875 0.328125 0.3125q0.21875 0.125 0.4375 0.21875q0.234375 0.078125 0.421875 0.125l0.6875 0.1875q0.265625 0.0625 0.578125 0.1875q0.328125 0.125 0.625 0.34375q0.3125 0.203125 0.5 0.53125q0.203125 0.328125 0.203125 0.796875q0 0.546875 -0.296875 1.0q-0.28125 0.4375 -0.828125 0.703125q-0.546875 0.265625 -1.328125 0.265625q-0.734375 0 -1.265625 -0.234375q-0.53125 -0.234375 -0.84375 -0.65625q-0.296875 -0.421875 -0.328125 -0.984375l0.84375 0q0.03125 0.390625 0.25 0.640625q0.234375 0.25 0.578125 0.375q0.359375 0.109375 0.765625 0.109375q0.46875 0 0.84375 -0.15625q0.375 -0.15625 0.59375 -0.421875q0.21875 -0.28125 0.21875 -0.65625q0 -0.328125 -0.1875 -0.53125q-0.1875 -0.21875 -0.5 -0.34375q-0.3125 -0.140625 -0.671875 -0.25l-0.828125 -0.234375q-0.796875 -0.234375 -1.265625 -0.65625q-0.453125 -0.421875 -0.453125 -1.109375q0 -0.5625 0.296875 -0.984375q0.3125 -0.4375 0.84375 -0.671875q0.53125 -0.234375 1.171875 -0.234375q0.65625 0 1.15625 0.234375q0.515625 0.234375 0.8125 0.640625q0.3125 0.390625 0.328125 0.90625l-0.796875 0zm4.121277 5.9375l0 -8.46875l0.546875 0l0 8.46875l-0.546875 0zm1.828125 -5.9375q-0.0625 -0.5 -0.484375 -0.765625q-0.421875 -0.28125 -1.03125 -0.28125q-0.453125 0 -0.796875 0.140625q-0.328125 0.140625 -0.515625 0.40625q-0.1875 0.25 -0.1875 0.578125q0 0.265625 0.125 0.46875q0.125 0.1875 0.328125 0.3125q0.21875 0.125 0.4375 0.21875q0.234375 0.078125 0.421875 0.125l0.6875 0.1875q0.265625 0.0625 0.578125 0.1875q0.328125 0.125 0.625 0.34375q0.3125 0.203125 0.5 0.53125q0.203125 0.328125 0.203125 0.796875q0 0.546875 -0.296875 1.0q-0.28125 0.4375 -0.828125 0.703125q-0.546875 0.265625 -1.328125 0.265625q-0.734375 0 -1.265625 -0.234375q-0.53125 -0.234375 -0.84375 -0.65625q-0.296875 -0.421875 -0.328125 -0.984375l0.84375 0q0.03125 0.390625 0.25 0.640625q0.234375 0.25 0.578125 0.375q0.359375 0.109375 0.765625 0.109375q0.46875 0 0.84375 -0.15625q0.375 -0.15625 0.59375 -0.421875q0.21875 -0.28125 0.21875 -0.65625q0 -0.328125 -0.1875 -0.53125q-0.1875 -0.21875 -0.5 -0.34375q-0.3125 -0.140625 -0.671875 -0.25l-0.828125 -0.234375q-0.796875 -0.234375 -1.265625 -0.65625q-0.453125 -0.421875 -0.453125 -1.109375q0 -0.5625 0.296875 -0.984375q0.3125 -0.4375 0.84375 -0.671875q0.53125 -0.234375 1.171875 -0.234375q0.65625 0 1.15625 0.234375q0.515625 0.234375 0.8125 0.640625q0.3125 0.390625 0.328125 0.90625l-0.796875 0zm4.121277 5.9375l0 -8.46875l0.546875 0l0 8.46875l-0.546875 0zm1.828125 -5.9375q-0.0625 -0.5 -0.484375 -0.765625q-0.421875 -0.28125 -1.03125 -0.28125q-0.453125 0 -0.796875 0.140625q-0.328125 0.140625 -0.515625 0.40625q-0.1875 0.25 -0.1875 0.578125q0 0.265625 0.125 0.46875q0.125 0.1875 0.328125 0.3125q0.21875 0.125 0.4375 0.21875q0.234375 0.078125 0.421875 0.125l0.6875 0.1875q0.265625 0.0625 0.578125 0.1875q0.328125 0.125 0.625 0.34375q0.3125 0.203125 0.5 0.53125q0.203125 0.328125 0.203125 0.796875q0 0.546875 -0.296875 1.0q-0.28125 0.4375 -0.828125 0.703125q-0.546875 0.265625 -1.328125 0.265625q-0.734375 0 -1.265625 -0.234375q-0.53125 -0.234375 -0.84375 -0.65625q-0.296875 -0.421875 -0.328125 -0.984375l0.84375 0q0.03125 0.390625 0.25 0.640625q0.234375 0.25 0.578125 0.375q0.359375 0.109375 0.765625 0.109375q0.46875 0 0.84375 -0.15625q0.375 -0.15625 0.59375 -0.421875q0.21875 -0.28125 0.21875 -0.65625q0 -0.328125 -0.1875 -0.53125q-0.1875 -0.21875 -0.5 -0.34375q-0.3125 -0.140625 -0.671875 -0.25l-0.828125 -0.234375q-0.796875 -0.234375 -1.265625 -0.65625q-0.453125 -0.421875 -0.453125 -1.109375q0 -0.5625 0.296875 -0.984375q0.3125 -0.4375 0.84375 -0.671875q0.53125 -0.234375 1.171875 -0.234375q0.65625 0 1.15625 0.234375q0.515625 0.234375 0.8125 0.640625q0.3125 0.390625 0.328125 0.90625l-0.796875 0zm4.121277 5.9375l0 -8.46875l0.546875 0l0 8.46875l-0.546875 0zm1.828125 -5.9375q-0.0625 -0.5 -0.484375 -0.765625q-0.421875 -0.28125 -1.03125 -0.28125q-0.453125 0 -0.796875 0.140625q-0.328125 0.140625 -0.515625 0.40625q-0.1875 0.25 -0.1875 0.578125q0 0.265625 0.125 0.46875q0.125 0.1875 0.328125 0.3125q0.21875 0.125 0.4375 0.21875q0.234375 0.078125 0.421875 0.125l0.6875 0.1875q0.265625 0.0625 0.578125 0.1875q0.328125 0.125 0.625 0.34375q0.3125 0.203125 0.5 0.53125q0.203125 0.328125 0.203125 0.796875q0 0.546875 -0.296875 1.0q-0.28125 0.4375 -0.828125 0.703125q-0.546875 0.265625 -1.328125 0.265625q-0.734375 0 -1.265625 -0.234375q-0.53125 -0.234375 -0.84375 -0.65625q-0.296875 -0.421875 -0.328125 -0.984375l0.84375 0q0.03125 0.390625 0.25 0.640625q0.234375 0.25 0.578125 0.375q0.359375 0.109375 0.765625 0.109375q0.46875 0 0.84375 -0.15625q0.375 -0.15625 0.59375 -0.421875q0.21875 -0.28125 0.21875 -0.65625q0 -0.328125 -0.1875 -0.53125q-0.1875 -0.21875 -0.5 -0.34375q-0.3125 -0.140625 -0.671875 -0.25l-0.828125 -0.234375q-0.796875 -0.234375 -1.265625 -0.65625q-0.453125 -0.421875 -0.453125 -1.109375q0 -0.5625 0.296875 -0.984375q0.3125 -0.4375 0.84375 -0.671875q0.53125 -0.234375 1.171875 -0.234375q0.65625 0 1.15625 0.234375q0.515625 0.234375 0.8125 0.640625q0.3125 0.390625 0.328125 0.90625l-0.796875 0z" fill-rule="nonzero"/><path fill="#d7d8df" d="m332.11047 291.98013l0 -8.46875l0.546875 0l0 8.46875l-0.546875 0zm1.828125 -5.9375q-0.0625 -0.5 -0.484375 -0.765625q-0.421875 -0.28125 -1.03125 -0.28125q-0.453125 0 -0.796875 0.140625q-0.328125 0.140625 -0.515625 0.40625q-0.1875 0.25 -0.1875 0.578125q0 0.265625 0.125 0.46875q0.125 0.1875 0.328125 0.3125q0.21875 0.125 0.4375 0.21875q0.234375 0.078125 0.421875 0.125l0.6875 0.1875q0.265625 0.0625 0.578125 0.1875q0.328125 0.125 0.625 0.34375q0.3125 0.203125 0.5 0.53125q0.203125 0.328125 0.203125 0.796875q0 0.546875 -0.296875 1.0q-0.28125 0.4375 -0.828125 0.703125q-0.546875 0.265625 -1.328125 0.265625q-0.734375 0 -1.265625 -0.234375q-0.53125 -0.234375 -0.84375 -0.65625q-0.296875 -0.421875 -0.328125 -0.984375l0.84375 0q0.03125 0.390625 0.25 0.640625q0.234375 0.25 0.578125 0.375q0.359375 0.109375 0.765625 0.109375q0.46875 0 0.84375 -0.15625q0.375 -0.15625 0.59375 -0.421875q0.21875 -0.28125 0.21875 -0.65625q0 -0.328125 -0.1875 -0.53125q-0.1875 -0.21875 -0.5 -0.34375q-0.3125 -0.140625 -0.671875 -0.25l-0.828125 -0.234375q-0.796875 -0.234375 -1.265625 -0.65625q-0.453125 -0.421875 -0.453125 -1.109375q0 -0.5625 0.296875 -0.984375q0.3125 -0.4375 0.84375 -0.671875q0.53125 -0.234375 1.171875 -0.234375q0.65625 0 1.15625 0.234375q0.515625 0.234375 0.8125 0.640625q0.3125 0.390625 0.328125 0.90625l-0.796875 0zm4.121277 5.9375l0 -8.46875l0.546875 0l0 8.46875l-0.546875 0zm1.828125 -5.9375q-0.0625 -0.5 -0.484375 -0.765625q-0.421875 -0.28125 -1.03125 -0.28125q-0.453125 0 -0.796875 0.140625q-0.328125 0.140625 -0.515625 0.40625q-0.1875 0.25 -0.1875 0.578125q0 0.265625 0.125 0.46875q0.125 0.1875 0.328125 0.3125q0.21875 0.125 0.4375 0.21875q0.234375 0.078125 0.421875 0.125l0.6875 0.1875q0.265625 0.0625 0.578125 0.1875q0.328125 0.125 0.625 0.34375q0.3125 0.203125 0.5 0.53125q0.203125 0.328125 0.203125 0.796875q0 0.546875 -0.296875 1.0q-0.28125 0.4375 -0.828125 0.703125q-0.546875 0.265625 -1.328125 0.265625q-0.734375 0 -1.265625 -0.234375q-0.53125 -0.234375 -0.84375 -0.65625q-0.296875 -0.421875 -0.328125 -0.984375l0.84375 0q0.03125 0.390625 0.25 0.640625q0.234375 0.25 0.578125 0.375q0.359375 0.109375 0.765625 0.109375q0.46875 0 0.84375 -0.15625q0.375 -0.15625 0.59375 -0.421875q0.21875 -0.28125 0.21875 -0.65625q0 -0.328125 -0.1875 -0.53125q-0.1875 -0.21875 -0.5 -0.34375q-0.3125 -0.140625 -0.671875 -0.25l-0.828125 -0.234375q-0.796875 -0.234375 -1.265625 -0.65625q-0.453125 -0.421875 -0.453125 -1.109375q0 -0.5625 0.296875 -0.984375q0.3125 -0.4375 0.84375 -0.671875q0.53125 -0.234375 1.171875 -0.234375q0.65625 0 1.15625 0.234375q0.515625 0.234375 0.8125 0.640625q0.3125 0.390625 0.328125 0.90625l-0.796875 0zm4.121277 5.9375l0 -8.46875l0.546875 0l0 8.46875l-0.546875 0zm1.828125 -5.9375q-0.0625 -0.5 -0.484375 -0.765625q-0.421875 -0.28125 -1.03125 -0.28125q-0.453125 0 -0.796875 0.140625q-0.328125 0.140625 -0.515625 0.40625q-0.1875 0.25 -0.1875 0.578125q0 0.265625 0.125 0.46875q0.125 0.1875 0.328125 0.3125q0.21875 0.125 0.4375 0.21875q0.234375 0.078125 0.421875 0.125l0.6875 0.1875q0.265625 0.0625 0.578125 0.1875q0.328125 0.125 0.625 0.34375q0.3125 0.203125 0.5 0.53125q0.203125 0.328125 0.203125 0.796875q0 0.546875 -0.296875 1.0q-0.28125 0.4375 -0.828125 0.703125q-0.546875 0.265625 -1.328125 0.265625q-0.734375 0 -1.265625 -0.234375q-0.53125 -0.234375 -0.84375 -0.65625q-0.296875 -0.421875 -0.328125 -0.984375l0.84375 0q0.03125 0.390625 0.25 0.640625q0.234375 0.25 0.578125 0.375q0.359375 0.109375 0.765625 0.109375q0.46875 0 0.84375 -0.15625q0.375 -0.15625 0.59375 -0.421875q0.21875 -0.28125 0.21875 -0.65625q0 -0.328125 -0.1875 -0.53125q-0.1875 -0.21875 -0.5 -0.34375q-0.3125 -0.140625 -0.671875 -0.25l-0.828125 -0.234375q-0.796875 -0.234375 -1.265625 -0.65625q-0.453125 -0.421875 -0.453125 -1.109375q0 -0.5625 0.296875 -0.984375q0.3125 -0.4375 0.84375 -0.671875q0.53125 -0.234375 1.171875 -0.234375q0.65625 0 1.15625 0.234375q0.515625 0.234375 0.8125 0.640625q0.3125 0.390625 0.328125 0.90625l-0.796875 0zm4.121277 5.9375l0 -8.46875l0.546875 0l0 8.46875l-0.546875 0zm1.828125 -5.9375q-0.0625 -0.5 -0.484375 -0.765625q-0.421875 -0.28125 -1.03125 -0.28125q-0.453125 0 -0.796875 0.140625q-0.328125 0.140625 -0.515625 0.40625q-0.1875 0.25 -0.1875 0.578125q0 0.265625 0.125 0.46875q0.125 0.1875 0.328125 0.3125q0.21875 0.125 0.4375 0.21875q0.234375 0.078125 0.421875 0.125l0.6875 0.1875q0.265625 0.0625 0.578125 0.1875q0.328125 0.125 0.625 0.34375q0.3125 0.203125 0.5 0.53125q0.203125 0.328125 0.203125 0.796875q0 0.546875 -0.296875 1.0q-0.28125 0.4375 -0.828125 0.703125q-0.546875 0.265625 -1.328125 0.265625q-0.734375 0 -1.265625 -0.234375q-0.53125 -0.234375 -0.84375 -0.65625q-0.296875 -0.421875 -0.328125 -0.984375l0.84375 0q0.03125 0.390625 0.25 0.640625q0.234375 0.25 0.578125 0.375q0.359375 0.109375 0.765625 0.109375q0.46875 0 0.84375 -0.15625q0.375 -0.15625 0.59375 -0.421875q0.21875 -0.28125 0.21875 -0.65625q0 -0.328125 -0.1875 -0.53125q-0.1875 -0.21875 -0.5 -0.34375q-0.3125 -0.140625 -0.671875 -0.25l-0.828125 -0.234375q-0.796875 -0.234375 -1.265625 -0.65625q-0.453125 -0.421875 -0.453125 -1.109375q0 -0.5625 0.296875 -0.984375q0.3125 -0.4375 0.84375 -0.671875q0.53125 -0.234375 1.171875 -0.234375q0.65625 0 1.15625 0.234375q0.515625 0.234375 0.8125 0.640625q0.3125 0.390625 0.328125 0.90625l-0.796875 0zm4.121277 5.9375l0 -8.46875l0.546875 0l0 8.46875l-0.546875 0zm1.828125 -5.9375q-0.0625 -0.5 -0.484375 -0.765625q-0.421875 -0.28125 -1.03125 -0.28125q-0.453125 0 -0.796875 0.140625q-0.328125 0.140625 -0.515625 0.40625q-0.1875 0.25 -0.1875 0.578125q0 0.265625 0.125 0.46875q0.125 0.1875 0.328125 0.3125q0.21875 0.125 0.4375 0.21875q0.234375 0.078125 0.421875 0.125l0.6875 0.1875q0.265625 0.0625 0.578125 0.1875q0.328125 0.125 0.625 0.34375q0.3125 0.203125 0.5 0.53125q0.203125 0.328125 0.203125 0.796875q0 0.546875 -0.296875 1.0q-0.28125 0.4375 -0.828125 0.703125q-0.546875 0.265625 -1.328125 0.265625q-0.734375 0 -1.265625 -0.234375q-0.53125 -0.234375 -0.84375 -0.65625q-0.296875 -0.421875 -0.328125 -0.984375l0.84375 0q0.03125 0.390625 0.25 0.640625q0.234375 0.25 0.578125 0.375q0.359375 0.109375 0.765625 0.109375q0.46875 0 0.84375 -0.15625q0.375 -0.15625 0.59375 -0.421875q0.21875 -0.28125 0.21875 -0.65625q0 -0.328125 -0.1875 -0.53125q-0.1875 -0.21875 -0.5 -0.34375q-0.3125 -0.140625 -0.671875 -0.25l-0.828125 -0.234375q-0.796875 -0.234375 -1.265625 -0.65625q-0.453125 -0.421875 -0.453125 -1.109375q0 -0.5625 0.296875 -0.984375q0.3125 -0.4375 0.84375 -0.671875q0.53125 -0.234375 1.171875 -0.234375q0.65625 0 1.15625 0.234375q0.515625 0.234375 0.8125 0.640625q0.3125 0.390625 0.328125 0.90625l-0.796875 0z" fill-rule="nonzero"/></g></svg>